<svg id="Layer_1" data-name="Layer 1" xmlns="http://www.w3.org/2000/svg" width="170.17" height="100" viewBox="0 0 170.17 100"><defs><style>.cls-1{fill:#fff;}.cls-2,.cls-6{fill:none;}.cls-2{stroke:#00467f;stroke-width:0.55px;}.cls-3{fill:#005828;}.cls-4{fill:#88b88b;}.cls-5{fill:#00467f;}.cls-6{stroke:#005828;stroke-linecap:round;stroke-width:0.45px;}.cls-7,.cls-8{fill:#003a95;stroke:#003a95;stroke-width:0.31px;}.cls-7{stroke-miterlimit:6.69;}.cls-8{stroke-miterlimit:10;}</style></defs><title>Artboard 1</title><path class="cls-1" d="M86,42.59c17.29,0,31.29-9.27,31.29-20.71S103.29,1.17,86,1.17,54.71,10.43,54.71,21.88,68.77,42.59,86,42.59Z"/><path class="cls-2" d="M86,42.59c17.29,0,31.29-9.27,31.29-20.71S103.29,1.17,86,1.17,54.71,10.43,54.71,21.88,68.77,42.59,86,42.59Z"/><path class="cls-3" d="M114.17,22.07c0-6.1-4.48-11.51-11.38-14.93a2.2,2.2,0,0,1,.19.68c.06.37-.19,1,.06.81s.81-.56.87-.56c1.55-.19.56,1.74.19,2.24-6,6.41-3.17,1.18-2.55-.06,1.12-2.24.44-4-4.11-3.55a17.25,17.25,0,0,0-7.59,2.61c2.74,3.55,3.79,9,3.11,13.93,11.26,6.9.75,14.93-8.4,16.36a29.22,29.22,0,0,1-5.47.37,42.05,42.05,0,0,0,7,.62c15.55,0,28.11-8.33,28.11-18.54Z"/><path class="cls-4" d="M91.1,22.19c.44.25.87.44,1.24.68A19.34,19.34,0,0,0,89,9.94c-4.35,3.3-5.54,8.46,2.11,12.25Z"/><path class="cls-5" d="M97.25,5A39.82,39.82,0,0,0,86.12,3.53c-15.49,0-28.05,8.27-28.05,18.54,0,7.15,6.16,13.37,15.11,16.42-2.74-1.68-3.11-4.48-.62-7.22,2.05-2.3,10.95-6.34,15.3-3.92.68.37-.19.5-.56.37-4.42-1-11.44,1.93-13.5,4.29-4,4.6,1.55,7.22,10.82,5.78,10-1.55,13.25-8.15,8.09-12.88C91.47,31.21,87.49,36.62,81,37.06c-.31.06-.37-.44-.06-.5,6.59-.5,10.26-6,11.2-12.19-.56-.44-1.24-.87-1.93-1.31-3-1.62-6-3.55-6.59-6.72-.5-3,1.62-5.54,4.42-7.53A10.37,10.37,0,0,0,75.55,6.76c-3.73,1.68-5.35,7.09-3.42,10s6.47,3.11,8.4.25c.19-.25.56,0,.37.25-2.11,3.17-7.28,2.92-9.33-.25s-.19-8.89,3.79-10.7C80.46,4,85.75,5.09,88.92,8.26A28.38,28.38,0,0,1,97.25,5Z"/><path class="cls-3" d="M35.55,70H38.1c3,0,3.36,1.68,3.36,3.73,0,1.87-.62,3.73-3.23,3.73H35.55Zm1.18,6.72H38c2.05,0,2.3-1.62,2.3-3s-.12-3-2.3-3H36.73Z"/><path class="cls-3" d="M44.82,70h5v.81H46v2.36h3.55V74H46v2.67h3.92v.81h-5.1Z"/><path class="cls-3" d="M52.91,70h1.55l3.17,6.22h0V70h1.18v7.46H57.2l-3-6h0v6H53V70Z"/><path class="cls-3" d="M65.16,77.48H64V70.83H61.55V70h6v.81H65.16Z"/><path class="cls-3" d="M71.5,70h1.55l2.55,7.46H74.36l-.68-2.05h-3l-.68,2.05H68.7Zm-.56,4.66h2.55l-1.24-3.61h0Z"/><path class="cls-3" d="M78.22,70H79.4v6.66h3.92v.81h-5.1Z"/><path class="cls-3" d="M95.2,71.95c0-.81-.37-1.31-1.49-1.31s-1.55.44-1.55,1.24c0,2.11,4.54.87,4.54,3.61,0,1.74-1.62,2.24-3,2.24-2.24,0-2.92-.87-2.92-2.49H92c0,.81.06,1.74,1.8,1.74.93,0,1.68-.5,1.68-1.31,0-2.11-4.54-.87-4.54-3.61,0-.68.37-2.05,2.8-2.05,1.87,0,2.67.68,2.67,2.11H95.2Z"/><path class="cls-3" d="M102.67,77.48h-1.18V70.83H99.06V70h6v.81h-2.43v6.66Z"/><path class="cls-3" d="M107.77,70h1.18v5.29c0,1.12.44,1.62,1.62,1.62s1.62-.56,1.62-1.62V70h1.18v5.29c0,1.43-.93,2.36-2.8,2.36s-2.8-.81-2.8-2.36Z"/><path class="cls-3" d="M116.85,70h2.55c3,0,3.36,1.68,3.36,3.73,0,1.87-.62,3.73-3.23,3.73h-2.67ZM118,76.74h1.24c2.05,0,2.3-1.62,2.3-3s-.12-3-2.3-3H118Z"/><path class="cls-3" d="M126.05,70h1.18v7.46h-1.18Z"/><path class="cls-3" d="M136.75,73.75c0,1.87-.44,3.86-3.11,3.86s-3.11-2-3.11-3.86.44-3.86,3.11-3.86S136.75,71.89,136.75,73.75Zm-5,0c0,1.74.19,3.11,1.87,3.11s1.87-1.43,1.87-3.11-.19-3.11-1.87-3.11S131.77,72,131.77,73.75Z"/><path class="cls-6" d="M17.33,65H96.13M118,65h50.26"/><path class="cls-7" d="M22.86,57.08a5.08,5.08,0,0,1,1.43-3.61A4.6,4.6,0,0,1,27.84,52a4.83,4.83,0,0,1,3.55,1.43,5.08,5.08,0,0,1,1.43,3.61,4.87,4.87,0,0,1-1.49,3.73,5.28,5.28,0,0,1-7.09,0A5.12,5.12,0,0,1,22.86,57.08Zm1.87.06a5.51,5.51,0,0,0,.81,3.48,2.76,2.76,0,0,0,2.3,1,2.76,2.76,0,0,0,2.3-1,5.51,5.51,0,0,0,.81-3.48,6,6,0,0,0-.81-3.55,2.73,2.73,0,0,0-2.3-1.06,2.81,2.81,0,0,0-2.3,1.06A5.72,5.72,0,0,0,24.73,57.15Z"/><path class="cls-7" d="M43.89,52.42v6.16a13.2,13.2,0,0,0,.06,1.93.65.65,0,0,0,.31.56,2.13,2.13,0,0,0,1.06.19v.5a6.46,6.46,0,0,0-2.55.37h-.12a4.54,4.54,0,0,1-.37-2.18,4.47,4.47,0,0,1-1.62,1.62,3.7,3.7,0,0,1-2,.56A3.08,3.08,0,0,1,37,61.69a2.3,2.3,0,0,1-1-1.06,5,5,0,0,1-.25-1.87V55.59a13.75,13.75,0,0,0-.06-2A.91.91,0,0,0,35.3,53a2.25,2.25,0,0,0-1.12-.19v-.5h3.17v6.47a6.33,6.33,0,0,0,.12,1.37,1.11,1.11,0,0,0,.56.75,2.15,2.15,0,0,0,1.12.31,3,3,0,0,0,1.68-.56A3.46,3.46,0,0,0,42,59.45a4.82,4.82,0,0,0,.31-1.87v-2a12.18,12.18,0,0,0-.06-1.87.65.65,0,0,0-.31-.56c-.19-.19-.5-.25-1.06-.25h-.25v-.5Z"/><path class="cls-7" d="M52.28,52.92h-2.8v5.66a9.43,9.43,0,0,0,.12,1.74,1.3,1.3,0,0,0,1.31,1,1.75,1.75,0,0,0,1.43-.93l.37.19a2.31,2.31,0,0,1-1.06,1.12,2.89,2.89,0,0,1-1.43.37,2.22,2.22,0,0,1-1.43-.5A2,2,0,0,1,48,60.44a10.49,10.49,0,0,1-.12-2.3V52.85H46.5v-.5a2.17,2.17,0,0,0,1.68-.81,3.71,3.71,0,0,0,.93-2.18h.37v2.92h2.8Z"/><path class="cls-7" d="M56.51,54a4.8,4.8,0,0,1,1.55-1.43,3.8,3.8,0,0,1,1.87-.5,3.69,3.69,0,0,1,1.93.5,2.29,2.29,0,0,1,1,1.18,9.45,9.45,0,0,1,.25,2.3v2.61a13.23,13.23,0,0,0,.06,2,.65.65,0,0,0,.37.5,2.25,2.25,0,0,0,1.12.19v.5H59.81v-.5H60c.56,0,.93-.06,1.06-.25a1.27,1.27,0,0,0,.31-.56c0-.19.06-.87.06-1.87v-2.8a11.2,11.2,0,0,0-.12-1.74,1.57,1.57,0,0,0-.62-.93,2,2,0,0,0-1.31-.37,2.92,2.92,0,0,0-1.62.5,4.57,4.57,0,0,0-1.24,1.55v3.73a12.7,12.7,0,0,0,.06,1.93.71.71,0,0,0,.37.56,2.13,2.13,0,0,0,1.06.19v.5H53.28v-.5h.25c.56,0,.93-.06,1.06-.25a1.27,1.27,0,0,0,.31-.56c0-.19.06-.87.06-1.87V49.25a3.74,3.74,0,0,0-.25-1.8q-.28-.37-1.31-.37v-.5a7.72,7.72,0,0,0,2.92-.5h.19Z"/><path class="cls-7" d="M74.49,55.59H68c0,.44-.06.81-.06,1a7.62,7.62,0,0,0,.75,3.73,2.58,2.58,0,0,0,2.3,1.24,3.12,3.12,0,0,0,3-1.87h.56a3.41,3.41,0,0,1-1.43,1.8,4.54,4.54,0,0,1-2.36.68,4.06,4.06,0,0,1-2.24-.62,5,5,0,0,1-1.74-1.68,5.71,5.71,0,0,1,.62-6.34A4.1,4.1,0,0,1,70.57,52a3.66,3.66,0,0,1,2.86,1.12A3.57,3.57,0,0,1,74.49,55.59Zm-2-.5c0-.19.06-.31.06-.5A2.07,2.07,0,0,0,72,53a2,2,0,0,0-1.43-.56c-1.37,0-2.24.87-2.49,2.61Z"/><path class="cls-7" d="M79.28,54.41a3.73,3.73,0,0,1,1.24-1.68A2.93,2.93,0,0,1,82.2,52a1.59,1.59,0,0,1,1.18.5,1.3,1.3,0,0,1,.44.93.85.85,0,0,1-.81.81c-.37,0-.68-.31-.87-.87a.7.7,0,0,0-.62-.56,2,2,0,0,0-1.18.68,3.37,3.37,0,0,0-.87,1.37,8.27,8.27,0,0,0-.19,2v1.68a12.18,12.18,0,0,0,.06,1.87.86.86,0,0,0,.31.62,2,2,0,0,0,1,.19H81v.5H76v-.5h.25a2,2,0,0,0,1-.19.91.91,0,0,0,.37-.56,13.23,13.23,0,0,0,.06-2V55.9A12.18,12.18,0,0,0,77.6,54a.86.86,0,0,0-.31-.62,2,2,0,0,0-1-.19H76v-.5a14.76,14.76,0,0,0,2.8-.68A5,5,0,0,1,79.28,54.41Z"/><path class="cls-7" d="M87.8,52h.31A7.32,7.32,0,0,1,88.42,54a6.09,6.09,0,0,1,1.74-1.43A4.19,4.19,0,0,1,92,52a3.1,3.1,0,0,1,1.8.5,2,2,0,0,1,.93,1.12,7.93,7.93,0,0,1,.19,2v2.92a13.74,13.74,0,0,0,.06,2,.91.91,0,0,0,.37.56,2.25,2.25,0,0,0,1.12.19v.5H91.72v-.5h.19c.56,0,.93-.06,1.06-.25a1.27,1.27,0,0,0,.31-.56c0-.19.06-.87.06-1.87v-3A8,8,0,0,0,93.21,54a1.51,1.51,0,0,0-.56-.87,1.91,1.91,0,0,0-1.18-.37,3.26,3.26,0,0,0-1.62.5,4.73,4.73,0,0,0-1.43,1.49v3.79a13.74,13.74,0,0,0,.06,2,.91.91,0,0,0,.37.56,2.25,2.25,0,0,0,1.12.19v.5H85.25v-.5a2.6,2.6,0,0,0,1.12-.19.77.77,0,0,0,.37-.5,13.77,13.77,0,0,0,.06-2.05v-2.8a13.23,13.23,0,0,0-.06-2,.65.65,0,0,0-.37-.5,2.25,2.25,0,0,0-1.12-.19v-.5C86.06,52.42,86.93,52.29,87.8,52Z"/><path class="cls-8" d="M22.86,57.08a5.08,5.08,0,0,1,1.43-3.61A4.6,4.6,0,0,1,27.84,52a4.83,4.83,0,0,1,3.55,1.43,5.08,5.08,0,0,1,1.43,3.61,4.87,4.87,0,0,1-1.49,3.73,5.28,5.28,0,0,1-7.09,0A5.12,5.12,0,0,1,22.86,57.08Zm1.87.06a5.51,5.51,0,0,0,.81,3.48,2.76,2.76,0,0,0,2.3,1,2.76,2.76,0,0,0,2.3-1,5.51,5.51,0,0,0,.81-3.48,6,6,0,0,0-.81-3.55,2.73,2.73,0,0,0-2.3-1.06,2.81,2.81,0,0,0-2.3,1.06A5.72,5.72,0,0,0,24.73,57.15Z"/><path class="cls-8" d="M43.89,52.42v6.16a13.2,13.2,0,0,0,.06,1.93.65.65,0,0,0,.31.56,2.13,2.13,0,0,0,1.06.19v.5a6.46,6.46,0,0,0-2.55.37h-.12a4.54,4.54,0,0,1-.37-2.18,4.47,4.47,0,0,1-1.62,1.62,3.7,3.7,0,0,1-2,.56A3.08,3.08,0,0,1,37,61.69a2.3,2.3,0,0,1-1-1.06,5,5,0,0,1-.25-1.87V55.59a13.75,13.75,0,0,0-.06-2A.91.91,0,0,0,35.3,53a2.25,2.25,0,0,0-1.12-.19v-.5h3.17v6.47a6.33,6.33,0,0,0,.12,1.37,1.11,1.11,0,0,0,.56.75,2.15,2.15,0,0,0,1.12.31,3,3,0,0,0,1.68-.56A3.46,3.46,0,0,0,42,59.45a4.82,4.82,0,0,0,.31-1.87v-2a12.18,12.18,0,0,0-.06-1.87.65.65,0,0,0-.31-.56c-.19-.19-.5-.25-1.06-.25h-.25v-.5Z"/><path class="cls-8" d="M52.28,52.92h-2.8v5.66a9.43,9.43,0,0,0,.12,1.74,1.3,1.3,0,0,0,1.31,1,1.75,1.75,0,0,0,1.43-.93l.37.19a2.31,2.31,0,0,1-1.06,1.12,2.89,2.89,0,0,1-1.43.37,2.22,2.22,0,0,1-1.43-.5A2,2,0,0,1,48,60.44a10.49,10.49,0,0,1-.12-2.3V52.85H46.5v-.5a2.17,2.17,0,0,0,1.68-.81,3.71,3.71,0,0,0,.93-2.18h.37v2.92h2.8Z"/><path class="cls-8" d="M56.51,54a4.8,4.8,0,0,1,1.55-1.43,3.8,3.8,0,0,1,1.87-.5,3.69,3.69,0,0,1,1.93.5,2.29,2.29,0,0,1,1,1.18,9.45,9.45,0,0,1,.25,2.3v2.61a13.23,13.23,0,0,0,.06,2,.65.65,0,0,0,.37.5,2.25,2.25,0,0,0,1.12.19v.5H59.81v-.5H60c.56,0,.93-.06,1.06-.25a1.27,1.27,0,0,0,.31-.56c0-.19.06-.87.06-1.87v-2.8a11.2,11.2,0,0,0-.12-1.74,1.57,1.57,0,0,0-.62-.93,2,2,0,0,0-1.31-.37,2.92,2.92,0,0,0-1.62.5,4.57,4.57,0,0,0-1.24,1.55v3.73a12.7,12.7,0,0,0,.06,1.93.71.71,0,0,0,.37.56,2.13,2.13,0,0,0,1.06.19v.5H53.28v-.5h.25c.56,0,.93-.06,1.06-.25a1.27,1.27,0,0,0,.31-.56c0-.19.06-.87.06-1.87V49.25a3.74,3.74,0,0,0-.25-1.8q-.28-.37-1.31-.37v-.5a7.72,7.72,0,0,0,2.92-.5h.19Z"/><path class="cls-8" d="M74.49,55.59H68c0,.44-.06.81-.06,1a7.62,7.62,0,0,0,.75,3.73,2.58,2.58,0,0,0,2.3,1.24,3.12,3.12,0,0,0,3-1.87h.56a3.41,3.41,0,0,1-1.43,1.8,4.54,4.54,0,0,1-2.36.68,4.06,4.06,0,0,1-2.24-.62,5,5,0,0,1-1.74-1.68,5.71,5.71,0,0,1,.62-6.34A4.1,4.1,0,0,1,70.57,52a3.66,3.66,0,0,1,2.86,1.12A3.57,3.57,0,0,1,74.49,55.59Zm-2-.5c0-.19.06-.31.06-.5A2.07,2.07,0,0,0,72,53a2,2,0,0,0-1.43-.56c-1.37,0-2.24.87-2.49,2.61Z"/><path class="cls-8" d="M79.28,54.41a3.73,3.73,0,0,1,1.24-1.68A2.93,2.93,0,0,1,82.2,52a1.59,1.59,0,0,1,1.18.5,1.3,1.3,0,0,1,.44.93.85.85,0,0,1-.81.81c-.37,0-.68-.31-.87-.87a.7.7,0,0,0-.62-.56,2,2,0,0,0-1.18.68,3.37,3.37,0,0,0-.87,1.37,8.27,8.27,0,0,0-.19,2v1.68a12.18,12.18,0,0,0,.06,1.87.86.86,0,0,0,.31.62,2,2,0,0,0,1,.19H81v.5H76v-.5h.25a2,2,0,0,0,1-.19.91.91,0,0,0,.37-.56,13.23,13.23,0,0,0,.06-2V55.9A12.18,12.18,0,0,0,77.6,54a.86.86,0,0,0-.31-.62,2,2,0,0,0-1-.19H76v-.5a14.76,14.76,0,0,0,2.8-.68A5,5,0,0,1,79.28,54.41Z"/><path class="cls-8" d="M87.8,52h.31A7.32,7.32,0,0,1,88.42,54a6.09,6.09,0,0,1,1.74-1.43A4.19,4.19,0,0,1,92,52a3.1,3.1,0,0,1,1.8.5,2,2,0,0,1,.93,1.12,7.93,7.93,0,0,1,.19,2v2.92a13.74,13.74,0,0,0,.06,2,.91.91,0,0,0,.37.56,2.25,2.25,0,0,0,1.12.19v.5H91.72v-.5h.19c.56,0,.93-.06,1.06-.25a1.27,1.27,0,0,0,.31-.56c0-.19.06-.87.06-1.87v-3A8,8,0,0,0,93.21,54a1.51,1.51,0,0,0-.56-.87,1.91,1.91,0,0,0-1.18-.37,3.26,3.26,0,0,0-1.62.5,4.73,4.73,0,0,0-1.43,1.49v3.79a13.74,13.74,0,0,0,.06,2,.91.91,0,0,0,.37.56,2.25,2.25,0,0,0,1.12.19v.5H85.25v-.5a2.6,2.6,0,0,0,1.12-.19.77.77,0,0,0,.37-.5,13.77,13.77,0,0,0,.06-2.05v-2.8a13.23,13.23,0,0,0-.06-2,.65.65,0,0,0-.37-.5,2.25,2.25,0,0,0-1.12-.19v-.5C86.06,52.42,86.93,52.29,87.8,52Z"/><path class="cls-8" d="M24.92,42c1.06-.12.37,1.18.12,1.55-4.11,4.42-2.18.81-1.74,0,.75-1.55.31-2.74-2.8-2.43-6.84.68-9.58,8-4.35,10.64.31.19.68.37,1.31.75,7.71,4.73.5,10.26-5.78,11.26C3.58,65,.35,61.44,3.4,58.08c1.43-1.55,7.53-4.35,10.45-2.67.44.25-.12.37-.37.25-3-.81-7.84,1.18-9.27,2.8-2.74,3.17,1.06,5,7.46,4,6.84-1.06,9.08-5.6,5.54-8.83,0,0,.12.12-.19-.12a9.73,9.73,0,0,0-1.55-1.06c-2.05-1.12-4.17-2.43-4.54-4.6C10.8,44.33,15.34,40,20.5,40c1.31-.12,3.36.12,3.67,1.93.06.25-.12.68.06.56s.56-.44.68-.44Z"/><path class="cls-7" d="M124.06,52h.12a4.61,4.61,0,0,1,.31,2,5.39,5.39,0,0,1,1.68-1.49,4,4,0,0,1,1.93-.5,3.47,3.47,0,0,1,1.87.5,2.72,2.72,0,0,1,1,1.55,5.89,5.89,0,0,1,1.8-1.55,3.51,3.51,0,0,1,1.87-.5,3.47,3.47,0,0,1,1.87.5,2.21,2.21,0,0,1,.93,1.12,8.15,8.15,0,0,1,.19,2.05v2.8a13.23,13.23,0,0,0,.06,2,.65.65,0,0,0,.37.5,2.25,2.25,0,0,0,1.12.19v.5h-4.66v-.5a2.13,2.13,0,0,0,1.06-.19.77.77,0,0,0,.37-.5,13.23,13.23,0,0,0,.06-2V55.4a7.55,7.55,0,0,0-.12-1.43,1.22,1.22,0,0,0-.56-.81,1.79,1.79,0,0,0-1.18-.37,2.85,2.85,0,0,0-1.49.5,6,6,0,0,0-1.49,1.55v3.67a12.18,12.18,0,0,0,.06,1.87.86.86,0,0,0,.31.62,1.86,1.86,0,0,0,1,.19v.5H128v-.5A2.13,2.13,0,0,0,129,61a.77.77,0,0,0,.37-.5,13.77,13.77,0,0,0,.06-2.05V55.84a11.49,11.49,0,0,0-.12-1.8,1.47,1.47,0,0,0-.56-.93,2,2,0,0,0-1.24-.37,2.56,2.56,0,0,0-1.43.44,6,6,0,0,0-1.49,1.37v3.92a12.7,12.7,0,0,0,.06,1.93.6.6,0,0,0,.37.56,2.13,2.13,0,0,0,1.06.19v.5h-4.6v-.5a2.13,2.13,0,0,0,1.06-.19.77.77,0,0,0,.37-.5,13.77,13.77,0,0,0,.06-2.05v-2.8a13.74,13.74,0,0,0-.06-2,.71.71,0,0,0-.37-.56,2.13,2.13,0,0,0-1.06-.19v-.5A7.73,7.73,0,0,0,124.06,52Z"/><path class="cls-7" d="M143.34,52v6.53a12.18,12.18,0,0,0,.06,1.87.86.86,0,0,0,.31.62,2,2,0,0,0,1,.19H145v.5h-5v-.5h.37c.56,0,.87-.06,1.06-.25a1.27,1.27,0,0,0,.31-.56c0-.19.06-.87.06-1.87V55.71a10.21,10.21,0,0,0-.12-2,.74.74,0,0,0-.44-.44,3.3,3.3,0,0,0-.87-.06H140v-.5a11.36,11.36,0,0,0,3.17-.62h.19Zm-2.18-4.79a1.23,1.23,0,0,1,.37-.87,1.13,1.13,0,0,1,.87-.37,1,1,0,0,1,.81.37,1.13,1.13,0,0,1,.37.87,1.23,1.23,0,0,1-.37.87,1.09,1.09,0,0,1-.81.37,1.28,1.28,0,0,1-1.24-1.24Z"/><path class="cls-7" d="M149,46v12.5a12.18,12.18,0,0,0,.06,1.87.86.86,0,0,0,.31.62,2,2,0,0,0,1,.19h.25v.5h-5v-.5H146a2,2,0,0,0,1-.19.91.91,0,0,0,.37-.56,13.23,13.23,0,0,0,.06-2V49.31a3.89,3.89,0,0,0-.25-1.87q-.28-.37-1.31-.37v-.5a8.59,8.59,0,0,0,1.62-.19,6.68,6.68,0,0,0,1.31-.31H149Z"/><path class="cls-7" d="M160.39,55.59h-6.53c0,.44-.06.81-.06,1a7.62,7.62,0,0,0,.75,3.73,2.58,2.58,0,0,0,2.3,1.24,3.12,3.12,0,0,0,3-1.87h.56A3.41,3.41,0,0,1,159,61.5a4.54,4.54,0,0,1-2.36.68,4.06,4.06,0,0,1-2.24-.62,5,5,0,0,1-1.74-1.68,5.71,5.71,0,0,1,.62-6.34A4.1,4.1,0,0,1,156.47,52a3.66,3.66,0,0,1,2.86,1.12A3.57,3.57,0,0,1,160.39,55.59Zm-2-.5c0-.19.06-.31.06-.5A2.07,2.07,0,0,0,157.9,53a2,2,0,0,0-1.43-.56c-1.37,0-2.24.87-2.49,2.61Z"/><path class="cls-7" d="M162.25,62.06V59h.44c.5,1.8,1.43,2.67,2.8,2.67a1.78,1.78,0,0,0,1.31-.5,1.74,1.74,0,0,0,.44-1.18,1.55,1.55,0,0,0-.44-1.18,7.68,7.68,0,0,0-1.8-1.12,7.29,7.29,0,0,1-2.05-1.37,2.2,2.2,0,0,1-.62-1.62A2.8,2.8,0,0,1,163,53a2.25,2.25,0,0,1,1.87-.87,2.53,2.53,0,0,1,2.05,1,2.87,2.87,0,0,0,.44-.81h.44v2.92h-.44a3.77,3.77,0,0,0-.87-1.8,2,2,0,0,0-1.55-.75,1.5,1.5,0,0,0-1.12.44,1.32,1.32,0,0,0-.44,1,1.42,1.42,0,0,0,.5,1.06,7.25,7.25,0,0,0,1.74,1.06A4.49,4.49,0,0,1,168,58a3.33,3.33,0,0,1,.44,1.62,2.54,2.54,0,0,1-.81,2,3,3,0,0,1-2.05.75,3.18,3.18,0,0,1-2.3-1.06,3,3,0,0,0-.5,1h-.5Z"/><path class="cls-8" d="M124.06,52h.12a4.61,4.61,0,0,1,.31,2,5.39,5.39,0,0,1,1.68-1.49,4,4,0,0,1,1.93-.5,3.47,3.47,0,0,1,1.87.5,2.72,2.72,0,0,1,1,1.55,5.89,5.89,0,0,1,1.8-1.55,3.51,3.51,0,0,1,1.87-.5,3.47,3.47,0,0,1,1.87.5,2.21,2.21,0,0,1,.93,1.12,8.15,8.15,0,0,1,.19,2.05v2.8a13.23,13.23,0,0,0,.06,2,.65.65,0,0,0,.37.5,2.25,2.25,0,0,0,1.12.19v.5h-4.66v-.5a2.13,2.13,0,0,0,1.06-.19.77.77,0,0,0,.37-.5,13.23,13.23,0,0,0,.06-2V55.4a7.55,7.55,0,0,0-.12-1.43,1.22,1.22,0,0,0-.56-.81,1.79,1.79,0,0,0-1.18-.37,2.85,2.85,0,0,0-1.49.5,6,6,0,0,0-1.49,1.55v3.67a12.18,12.18,0,0,0,.06,1.87.86.86,0,0,0,.31.62,1.86,1.86,0,0,0,1,.19v.5H128v-.5A2.13,2.13,0,0,0,129,61a.77.77,0,0,0,.37-.5,13.77,13.77,0,0,0,.06-2.05V55.84a11.49,11.49,0,0,0-.12-1.8,1.47,1.47,0,0,0-.56-.93,2,2,0,0,0-1.24-.37,2.56,2.56,0,0,0-1.43.44,6,6,0,0,0-1.49,1.37v3.92a12.7,12.7,0,0,0,.06,1.93.6.6,0,0,0,.37.56,2.13,2.13,0,0,0,1.06.19v.5h-4.6v-.5a2.13,2.13,0,0,0,1.06-.19.77.77,0,0,0,.37-.5,13.77,13.77,0,0,0,.06-2.05v-2.8a13.74,13.74,0,0,0-.06-2,.71.71,0,0,0-.37-.56,2.13,2.13,0,0,0-1.06-.19v-.5A7.73,7.73,0,0,0,124.06,52Z"/><path class="cls-8" d="M143.34,52v6.53a12.18,12.18,0,0,0,.06,1.87.86.86,0,0,0,.31.62,2,2,0,0,0,1,.19H145v.5h-5v-.5h.37c.56,0,.87-.06,1.06-.25a1.27,1.27,0,0,0,.31-.56c0-.19.06-.87.06-1.87V55.71a10.21,10.21,0,0,0-.12-2,.74.74,0,0,0-.44-.44,3.3,3.3,0,0,0-.87-.06H140v-.5a11.36,11.36,0,0,0,3.17-.62h.19Zm-2.18-4.79a1.23,1.23,0,0,1,.37-.87,1.13,1.13,0,0,1,.87-.37,1,1,0,0,1,.81.37,1.13,1.13,0,0,1,.37.87,1.23,1.23,0,0,1-.37.87,1.09,1.09,0,0,1-.81.37,1.28,1.28,0,0,1-1.24-1.24Z"/><path class="cls-8" d="M149,46v12.5a12.18,12.18,0,0,0,.06,1.87.86.86,0,0,0,.31.62,2,2,0,0,0,1,.19h.25v.5h-5v-.5H146a2,2,0,0,0,1-.19.91.91,0,0,0,.37-.56,13.23,13.23,0,0,0,.06-2V49.31a3.89,3.89,0,0,0-.25-1.87q-.28-.37-1.31-.37v-.5a8.59,8.59,0,0,0,1.62-.19,6.68,6.68,0,0,0,1.31-.31H149Z"/><path class="cls-8" d="M160.39,55.59h-6.53c0,.44-.06.81-.06,1a7.62,7.62,0,0,0,.75,3.73,2.58,2.58,0,0,0,2.3,1.24,3.12,3.12,0,0,0,3-1.87h.56A3.41,3.41,0,0,1,159,61.5a4.54,4.54,0,0,1-2.36.68,4.06,4.06,0,0,1-2.24-.62,5,5,0,0,1-1.74-1.68,5.71,5.71,0,0,1,.62-6.34A4.1,4.1,0,0,1,156.47,52a3.66,3.66,0,0,1,2.86,1.12A3.57,3.57,0,0,1,160.39,55.59Zm-2-.5c0-.19.06-.31.06-.5A2.07,2.07,0,0,0,157.9,53a2,2,0,0,0-1.43-.56c-1.37,0-2.24.87-2.49,2.61Z"/><path class="cls-8" d="M162.25,62.06V59h.44c.5,1.8,1.43,2.67,2.8,2.67a1.78,1.78,0,0,0,1.31-.5,1.74,1.74,0,0,0,.44-1.18,1.55,1.55,0,0,0-.44-1.18,7.68,7.68,0,0,0-1.8-1.12,7.29,7.29,0,0,1-2.05-1.37,2.2,2.2,0,0,1-.62-1.62A2.8,2.8,0,0,1,163,53a2.25,2.25,0,0,1,1.87-.87,2.53,2.53,0,0,1,2.05,1,2.87,2.87,0,0,0,.44-.81h.44v2.92h-.44a3.77,3.77,0,0,0-.87-1.8,2,2,0,0,0-1.55-.75,1.5,1.5,0,0,0-1.12.44,1.32,1.32,0,0,0-.44,1,1.42,1.42,0,0,0,.5,1.06,7.25,7.25,0,0,0,1.74,1.06A4.49,4.49,0,0,1,168,58a3.33,3.33,0,0,1,.44,1.62,2.54,2.54,0,0,1-.81,2,3,3,0,0,1-2.05.75,3.18,3.18,0,0,1-2.3-1.06,3,3,0,0,0-.5,1h-.5Z"/><path class="cls-8" d="M124.19,42c1.06-.12.37,1.18.12,1.55-4.11,4.42-2.18.81-1.74,0,.75-1.55.31-2.74-2.8-2.43-6.84.68-9.58,8-4.35,10.64.31.19.68.37,1.31.75,7.71,4.73.5,10.26-5.78,11.26-8.09,1.24-11.32-2.36-8.27-5.72,1.43-1.55,7.53-4.35,10.45-2.67.44.25-.12.37-.37.25-3-.68-7.9,1.31-9.27,3-2.74,3.17,1.06,5,7.46,4,6.84-1.06,9.08-5.6,5.54-8.83,0,0,.12.12-.19-.12a9.73,9.73,0,0,0-1.55-1.06c-2.05-1.12-4.17-2.43-4.54-4.6-.12-3.48,4.42-7.77,9.58-7.84,1.31-.12,3.36.12,3.67,1.93.06.25-.12.68.06.56a2.53,2.53,0,0,1,.68-.62Z"/><path d="M34.11,88.8a1.9,1.9,0,0,0-.41-.34,3.68,3.68,0,0,0-.57-.3,4.07,4.07,0,0,0-.69-.22,3.64,3.64,0,0,0-.78-.08,2.44,2.44,0,0,0-1.54.39,1.31,1.31,0,0,0-.49,1.08,1.2,1.2,0,0,0,.14.61,1.14,1.14,0,0,0,.44.41,3.29,3.29,0,0,0,.74.3q.44.13,1.05.27a11,11,0,0,1,1.26.35,3.68,3.68,0,0,1,1,.49,2,2,0,0,1,.61.71,2.28,2.28,0,0,1,.21,1,2.36,2.36,0,0,1-.25,1.12,2.25,2.25,0,0,1-.69.79,3,3,0,0,1-1,.46,5.47,5.47,0,0,1-1.29.15,6,6,0,0,1-2-.32,5.53,5.53,0,0,1-1.69-.95l.55-1a3,3,0,0,0,.53.43,4.23,4.23,0,0,0,.74.39,5.38,5.38,0,0,0,.89.28,4.47,4.47,0,0,0,1,.11,2.76,2.76,0,0,0,1.5-.34A1.27,1.27,0,0,0,33.66,93a1.46,1.46,0,0,0-.5-.45,3.83,3.83,0,0,0-.82-.34l-1.11-.3A11,11,0,0,1,30,91.52a3.28,3.28,0,0,1-.87-.46,1.73,1.73,0,0,1-.53-.65,2.15,2.15,0,0,1-.18-.91,2.58,2.58,0,0,1,.24-1.14,2.4,2.4,0,0,1,.67-.84,2.93,2.93,0,0,1,1-.51,4.66,4.66,0,0,1,4.25.86Z"/><path d="M38.37,96a1.85,1.85,0,0,1-1.57-.7,3.39,3.39,0,0,1-.53-2.08v-4h1.12V93q0,2,1.41,2a2.16,2.16,0,0,0,1.29-.44,2.58,2.58,0,0,0,.89-1.2V89.29h1.12v5.25c0,.26.12.4.35.41v1l-.25,0H42a.89.89,0,0,1-.6-.18.69.69,0,0,1-.24-.49l0-.8A3.07,3.07,0,0,1,40,95.64,3.22,3.22,0,0,1,38.37,96Z"/><path d="M46.33,96a5.16,5.16,0,0,1-1.57-.25,3.89,3.89,0,0,1-1.33-.72l.48-.75a4.65,4.65,0,0,0,1.17.67,3.42,3.42,0,0,0,1.23.22,2,2,0,0,0,1.15-.29.91.91,0,0,0,.42-.8.73.73,0,0,0-.11-.41,1,1,0,0,0-.34-.3,2.88,2.88,0,0,0-.58-.23L46,93q-.6-.15-1-.29a2.77,2.77,0,0,1-.71-.33,1.15,1.15,0,0,1-.41-.46,1.52,1.52,0,0,1-.13-.66,1.92,1.92,0,0,1,.2-.88,1.85,1.85,0,0,1,.54-.65,2.42,2.42,0,0,1,.81-.39,3.59,3.59,0,0,1,1-.13,4,4,0,0,1,1.4.24,3.42,3.42,0,0,1,1.09.63l-.51.67a2.86,2.86,0,0,0-.94-.55A3.19,3.19,0,0,0,46.25,90a2,2,0,0,0-1,.26.9.9,0,0,0-.42.83.79.79,0,0,0,.08.38.72.72,0,0,0,.27.27,2.16,2.16,0,0,0,.49.2l.72.19q.66.15,1.15.31a3.3,3.3,0,0,1,.81.38,1.44,1.44,0,0,1,.48.51A1.47,1.47,0,0,1,49,94a1.76,1.76,0,0,1-.71,1.47A3.06,3.06,0,0,1,46.33,96Z"/><path d="M52,96a2.56,2.56,0,0,1-.91-.16,2.31,2.31,0,0,1-.72-.43,2,2,0,0,1-.48-.65,1.88,1.88,0,0,1-.17-.79,1.81,1.81,0,0,1,.2-.86,1.92,1.92,0,0,1,.58-.66,2.77,2.77,0,0,1,.89-.42,4.08,4.08,0,0,1,1.12-.15,5.57,5.57,0,0,1,1,.09,4.52,4.52,0,0,1,.88.24v-.53A1.6,1.6,0,0,0,52.63,90a3.7,3.7,0,0,0-2.11.77L50.16,90a5.53,5.53,0,0,1,1.28-.65,4.05,4.05,0,0,1,1.32-.22,2.8,2.8,0,0,1,2,.7,2.58,2.58,0,0,1,.74,2v2.7c0,.26.12.4.35.41v1l-.24,0H55.4a1.09,1.09,0,0,1-.55-.15.6.6,0,0,1-.29-.52l0-.47a2.8,2.8,0,0,1-.52.53,3.16,3.16,0,0,1-.62.38,3.29,3.29,0,0,1-.68.23A3.23,3.23,0,0,1,52,96Zm.28-.84a2.51,2.51,0,0,0,1-.23,2.31,2.31,0,0,0,.8-.56.82.82,0,0,0,.24-.52v-1a4.77,4.77,0,0,0-.83-.24,4.58,4.58,0,0,0-.84-.08,2.44,2.44,0,0,0-1.38.35,1.09,1.09,0,0,0-.52,1,1.23,1.23,0,0,0,.39.9,1.43,1.43,0,0,0,.47.29A1.74,1.74,0,0,0,52.3,95.2Z"/><path d="M63,95.91H61.93v-3.7a2.85,2.85,0,0,0-.32-1.55,1.1,1.1,0,0,0-1-.48,1.88,1.88,0,0,0-.69.13,2.75,2.75,0,0,0-.65.36,2.52,2.52,0,0,0-.53.55,2.33,2.33,0,0,0-.34.7v4H57.3V89.29h1v1.42a2.91,2.91,0,0,1,1.14-1.12,3.24,3.24,0,0,1,1.62-.42,2,2,0,0,1,1,.21,1.61,1.61,0,0,1,.61.58,2.59,2.59,0,0,1,.32.88A6,6,0,0,1,63,92Z"/><path d="M74.5,94.69A3.65,3.65,0,0,1,71.76,96a3.6,3.6,0,0,1-1.67-.39,4.4,4.4,0,0,1-1.33-1,5,5,0,0,1-.88-1.47,4.61,4.61,0,0,1-.32-1.7,4.78,4.78,0,0,1,1.19-3.18,4.15,4.15,0,0,1,1.33-1,3.85,3.85,0,0,1,1.67-.37,3.89,3.89,0,0,1,2.15.54,3.62,3.62,0,0,1,1.29,1.42l-.87.61a2.73,2.73,0,0,0-1.08-1.17,3,3,0,0,0-1.51-.38,2.6,2.6,0,0,0-1.24.3,3.06,3.06,0,0,0-1,.79,3.63,3.63,0,0,0-.61,1.13,4.12,4.12,0,0,0-.22,1.33A3.84,3.84,0,0,0,69,92.77a3.72,3.72,0,0,0,.66,1.13,3,3,0,0,0,1,.77,2.79,2.79,0,0,0,1.24.28,3.41,3.41,0,0,0,2.65-1.42V92.28H72.56v-.86h2.9v4.49h-1Z"/><path d="M80.52,90.27A2.87,2.87,0,0,0,79,90.7a2.2,2.2,0,0,0-.91,1.13v4.08H77V89.29h1v1.53a3.37,3.37,0,0,1,.9-1.13,1.87,1.87,0,0,1,1.19-.45h.37Z"/><path d="M84.06,96a3.37,3.37,0,0,1-1.37-.27A3.24,3.24,0,0,1,81.63,95a3.38,3.38,0,0,1-.69-1.1,3.58,3.58,0,0,1-.25-1.33,3.53,3.53,0,0,1,.25-1.32,3.35,3.35,0,0,1,.7-1.09,3.31,3.31,0,0,1,1.07-.74,3.37,3.37,0,0,1,1.37-.27,3.22,3.22,0,0,1,3.08,2.1,3.55,3.55,0,0,1,.23,1.28c0,.09,0,.18,0,.25a1.37,1.37,0,0,1,0,.18H81.87a2.57,2.57,0,0,0,.23.9A2.29,2.29,0,0,0,83.28,95a2.07,2.07,0,0,0,.82.17,2.15,2.15,0,0,0,.6-.08,2.57,2.57,0,0,0,.55-.22,1.88,1.88,0,0,0,.45-.34,1.4,1.4,0,0,0,.3-.46l1,.27a2.43,2.43,0,0,1-.45.67,3,3,0,0,1-.66.53,3.41,3.41,0,0,1-.83.35A3.56,3.56,0,0,1,84.06,96Zm2.27-3.88a2.4,2.4,0,0,0-.23-.87,2.34,2.34,0,0,0-.49-.68,2.27,2.27,0,0,0-2.37-.44,2.16,2.16,0,0,0-.69.44,2.25,2.25,0,0,0-.48.68,2.49,2.49,0,0,0-.22.86Z"/><path d="M91.26,96A2.75,2.75,0,0,1,90,95.71,3.06,3.06,0,0,1,89,95a3.42,3.42,0,0,1-.63-1.08,3.68,3.68,0,0,1-.22-1.27,4,4,0,0,1,.22-1.33,3.37,3.37,0,0,1,.63-1.1,3,3,0,0,1,1-.74,2.84,2.84,0,0,1,1.25-.27,2.55,2.55,0,0,1,1.45.41,3.73,3.73,0,0,1,1,1V89.29h1v6.54a2.8,2.8,0,0,1-.27,1.25,2.68,2.68,0,0,1-.72.91,3.2,3.2,0,0,1-1.07.56,4.42,4.42,0,0,1-1.31.19,3.79,3.79,0,0,1-1.83-.39,3.39,3.39,0,0,1-1.17-1.07l.65-.57a2.47,2.47,0,0,0,1,.88,3.13,3.13,0,0,0,1.34.29,2.93,2.93,0,0,0,.87-.13,2,2,0,0,0,.72-.38,1.88,1.88,0,0,0,.49-.63,2,2,0,0,0,.18-.9V94.67a2.86,2.86,0,0,1-1,1,2.67,2.67,0,0,1-.65.26A2.8,2.8,0,0,1,91.26,96Zm.34-.91a1.9,1.9,0,0,0,.69-.13,2.56,2.56,0,0,0,.61-.34,2.19,2.19,0,0,0,.47-.48,1.52,1.52,0,0,0,.25-.55v-1.9a2.55,2.55,0,0,0-.36-.62,2.77,2.77,0,0,0-.5-.49,2.24,2.24,0,0,0-.6-.32,2,2,0,0,0-.65-.11,1.88,1.88,0,0,0-.91.22,2.16,2.16,0,0,0-.68.57,2.7,2.7,0,0,0-.43.81,2.82,2.82,0,0,0-.15.91A2.54,2.54,0,0,0,90,94.35a2.32,2.32,0,0,0,.72.53A2,2,0,0,0,91.6,95.08Z"/><path d="M99.15,96a3.25,3.25,0,0,1-2.42-1A3.37,3.37,0,0,1,96,93.92a3.58,3.58,0,0,1-.24-1.31,3.53,3.53,0,0,1,.25-1.32,3.45,3.45,0,0,1,.69-1.09,3.28,3.28,0,0,1,1.05-.75,3.24,3.24,0,0,1,1.35-.28,3.27,3.27,0,0,1,2.42,1,3.45,3.45,0,0,1,.69,1.09,3.53,3.53,0,0,1,.25,1.32,3.58,3.58,0,0,1-.24,1.31,3.29,3.29,0,0,1-1.74,1.84A3.26,3.26,0,0,1,99.15,96ZM97,92.63a2.65,2.65,0,0,0,.17,1,2.46,2.46,0,0,0,.47.77,2.2,2.2,0,0,0,.7.52,2,2,0,0,0,1.71,0,2.25,2.25,0,0,0,.7-.53,2.46,2.46,0,0,0,.48-.79,2.8,2.8,0,0,0,0-1.93,2.46,2.46,0,0,0-.48-.79,2.24,2.24,0,0,0-.7-.53,2,2,0,0,0-.86-.19,1.92,1.92,0,0,0-.86.2,2.26,2.26,0,0,0-.7.53,2.52,2.52,0,0,0-.47.79A2.71,2.71,0,0,0,97,92.63Z"/><path d="M107.06,90.27a2.87,2.87,0,0,0-1.48.43,2.2,2.2,0,0,0-.91,1.13v4.08h-1.12V89.29h1v1.53a3.37,3.37,0,0,1,.9-1.13,1.87,1.87,0,0,1,1.19-.45h.37Z"/><path d="M108.44,97.73a5.58,5.58,0,0,0,.61,0,.47.47,0,0,0,.22-.05.69.69,0,0,0,.23-.24,4.09,4.09,0,0,0,.29-.56q.16-.37.41-1l-2.8-6.62h1.15l2.26,5.62,2.06-5.62h1.07l-3.25,8.36a1.64,1.64,0,0,1-.66.86,1.92,1.92,0,0,1-1,.26h-.28l-.28-.05Z"/><path d="M113.25,96.12a.47.47,0,0,0,.2-.06.25.25,0,0,0,.11-.25V94.49h.93V96a.84.84,0,0,1-.11.45.89.89,0,0,1-.29.29,1.37,1.37,0,0,1-.4.16,1.94,1.94,0,0,1-.44.05Z"/><path d="M119.44,95.91v-7.5H122a3.94,3.94,0,0,1,1.58.3,3.22,3.22,0,0,1,1.14.8,3.36,3.36,0,0,1,.68,1.19,4.59,4.59,0,0,1,.23,1.45,4.46,4.46,0,0,1-.25,1.55,3.33,3.33,0,0,1-.73,1.18,3.28,3.28,0,0,1-1.15.76,4,4,0,0,1-1.5.27Zm5.26-3.76a3.75,3.75,0,0,0-.17-1.17,2.51,2.51,0,0,0-.52-.91,2.42,2.42,0,0,0-.84-.6,2.8,2.8,0,0,0-1.13-.22h-1.65v5.81H122a2.82,2.82,0,0,0,1.15-.22,2.31,2.31,0,0,0,.83-.61,2.71,2.71,0,0,0,.51-.92A3.71,3.71,0,0,0,124.7,92.15Z"/><path d="M133.52,95.91v-5.8L131,94.56h-.54L128,90.11v5.8h-1v-7.5h1l2.72,4.87,2.73-4.87h1v7.5Z"/><path d="M136.27,95.91v-7.5h2.6a3.94,3.94,0,0,1,1.58.3,3.23,3.23,0,0,1,1.14.8,3.36,3.36,0,0,1,.68,1.19,4.58,4.58,0,0,1,.23,1.45,4.47,4.47,0,0,1-.25,1.55,3.32,3.32,0,0,1-.73,1.18,3.28,3.28,0,0,1-1.15.76,4,4,0,0,1-1.5.27Zm5.26-3.76a3.75,3.75,0,0,0-.17-1.17,2.52,2.52,0,0,0-.52-.91,2.42,2.42,0,0,0-.84-.6,2.8,2.8,0,0,0-1.13-.22h-1.65v5.81h1.65a2.82,2.82,0,0,0,1.15-.22,2.3,2.3,0,0,0,.83-.61,2.7,2.7,0,0,0,.51-.92A3.71,3.71,0,0,0,141.53,92.15Z"/></svg>