<?xml version="1.0" encoding="utf-8"?>
<!-- Generator: Adobe Illustrator 21.0.0, SVG Export Plug-In . SVG Version: 6.00 Build 0)  -->
<svg version="1.1" id="Layer_1" xmlns="http://www.w3.org/2000/svg" xmlns:xlink="http://www.w3.org/1999/xlink" x="0px" y="0px"
	 viewBox="0 0 170.2 100" style="enable-background:new 0 0 170.2 100;" xml:space="preserve">
<style type="text/css">
	.st0{fill:none;stroke:#005244;stroke-width:0.4447;stroke-linecap:round;}
	.st1{fill:#FFFFFF;}
	.st2{fill:none;stroke:#00467F;stroke-width:0.5496;}
	.st3{fill:#005828;}
	.st4{fill:#88B88B;}
	.st5{fill:#00467F;}
	.st6{fill:none;stroke:#005828;stroke-width:0.4478;stroke-linecap:round;}
	.st7{fill:#003A95;stroke:#003A95;stroke-width:0.311;stroke-miterlimit:6.6943;}
	.st8{fill:#003A95;stroke:#003A95;stroke-width:0.311;stroke-miterlimit:10;}
</style>
<g>
	<path class="st0" d="M96.1,62.9"/>
	<path class="st1" d="M86,42.6c17.3,0,31.3-9.3,31.3-20.7S103.3,1.2,86,1.2s-31.3,9.3-31.3,20.7C54.8,33.3,68.8,42.6,86,42.6
		L86,42.6z"/>
	<path class="st2" d="M86,42.6c17.3,0,31.3-9.3,31.3-20.7S103.3,1.2,86,1.2s-31.3,9.3-31.3,20.7C54.8,33.3,68.8,42.6,86,42.6
		L86,42.6z"/>
	<path class="st3" d="M114.2,22.1c0-6.1-4.5-11.5-11.4-14.9c0.1,0.2,0.2,0.4,0.2,0.7c0.1,0.4-0.2,1,0.1,0.8c0.2-0.1,0.8-0.6,0.9-0.6
		c1.6-0.2,0.6,1.7,0.2,2.2c-6,6.4-3.2,1.2-2.6-0.1c1.1-2.2,0.4-4-4.1-3.5C94.7,7,92,7.9,89.9,9.3c2.7,3.5,3.8,9,3.1,13.9
		c11.3,6.9,0.7,14.9-8.4,16.4c-2.1,0.3-3.9,0.4-5.5,0.4c2.2,0.4,4.5,0.6,7,0.6C101.6,40.6,114.2,32.3,114.2,22.1L114.2,22.1z"/>
	<path class="st4" d="M91.1,22.2c0.4,0.2,0.9,0.4,1.2,0.7c0.4-4.7-0.8-9.6-3.4-12.9C84.6,13.2,83.4,18.4,91.1,22.2L91.1,22.2z"/>
	<path class="st5" d="M97.3,5c-3.4-1-7.2-1.5-11.1-1.5c-15.5,0-28.1,8.3-28.1,18.5c0,7.2,6.2,13.4,15.1,16.4
		c-2.7-1.7-3.1-4.5-0.6-7.2c2.1-2.3,10.9-6.3,15.3-3.9c0.7,0.4-0.2,0.5-0.6,0.4c-4.4-1-11.4,1.9-13.5,4.3c-4,4.6,1.6,7.2,10.8,5.8
		c10-1.6,13.2-8.1,8.1-12.9c-1.2,6.3-5.2,11.7-11.8,12.1c-0.3,0.1-0.4-0.4-0.1-0.5c6.6-0.5,10.3-6,11.2-12.2
		c-0.6-0.4-1.2-0.9-1.9-1.3c-3-1.6-6-3.5-6.6-6.7c-0.5-3,1.6-5.5,4.4-7.5c-2.9-3-7.5-4.4-12.4-2.1c-3.7,1.7-5.3,7.1-3.4,10
		c1.9,2.9,6.5,3.1,8.4,0.2c0.2-0.2,0.6,0,0.4,0.2c-2.1,3.2-7.3,2.9-9.3-0.2c-2.1-3.2-0.2-8.9,3.8-10.7C80.5,4,85.7,5.1,88.9,8.3
		C92,6.5,95.3,5.3,97.3,5L97.3,5z"/>
	<g>
		<path class="st3" d="M35.6,70h2.6c3,0,3.4,1.7,3.4,3.7c0,1.9-0.6,3.7-3.2,3.7h-2.7C35.6,77.5,35.6,70,35.6,70z M36.7,76.7H38
			c2.1,0,2.3-1.6,2.3-3c0-1.4-0.1-3-2.3-3h-1.2V76.7z"/>
		<path class="st3" d="M44.8,70h5v0.8H46v2.4h3.5V74H46v2.7h3.9v0.8h-5.1C44.8,77.5,44.8,70,44.8,70z"/>
		<path class="st3" d="M52.9,70h1.6l3.2,6.2l0,0V70h1.2v7.5h-1.6l-3-6l0,0v6H53L52.9,70L52.9,70z"/>
		<path class="st3" d="M65.2,77.5H64v-6.7h-2.4V70h6v0.8h-2.4C65.2,70.8,65.2,77.5,65.2,77.5z"/>
	</g>
	<g>
		<path class="st3" d="M71.5,70h1.6l2.6,7.5h-1.2l-0.7-2.1h-3l-0.7,2.1h-1.2L71.5,70z M70.9,74.7h2.6l-1.2-3.6l0,0L70.9,74.7z"/>
		<path class="st3" d="M78.2,70h1.2v6.7h3.9v0.8h-5.1C78.2,77.5,78.2,70,78.2,70z"/>
		<path class="st3" d="M95.2,71.9c0-0.8-0.4-1.3-1.5-1.3c-1,0-1.6,0.4-1.6,1.2c0,2.1,4.5,0.9,4.5,3.6c0,1.7-1.6,2.2-3,2.2
			c-2.2,0-2.9-0.9-2.9-2.5H92c0,0.8,0.1,1.7,1.8,1.7c0.9,0,1.7-0.5,1.7-1.3c0-2.1-4.5-0.9-4.5-3.6c0-0.7,0.4-2.1,2.8-2.1
			c1.9,0,2.7,0.7,2.7,2.1h-1.2V71.9z"/>
		<path class="st3" d="M102.7,77.5h-1.2v-6.7h-2.4V70h6v0.8h-2.4L102.7,77.5L102.7,77.5z"/>
		<path class="st3" d="M107.8,70h1.2v5.3c0,1.1,0.4,1.6,1.6,1.6c1.2,0,1.6-0.6,1.6-1.6V70h1.2v5.3c0,1.4-0.9,2.4-2.8,2.4
			c-1.9,0-2.8-0.8-2.8-2.4V70z"/>
		<path class="st3" d="M116.8,70h2.6c3,0,3.4,1.7,3.4,3.7c0,1.9-0.6,3.7-3.2,3.7h-2.7V70z M118,76.7h1.2c2.1,0,2.3-1.6,2.3-3
			c0-1.4-0.1-3-2.3-3H118V76.7z"/>
		<path class="st3" d="M126.1,70h1.2v7.5h-1.2V70z"/>
		<path class="st3" d="M136.8,73.8c0,1.9-0.4,3.9-3.1,3.9s-3.1-2-3.1-3.9s0.4-3.9,3.1-3.9S136.8,71.9,136.8,73.8z M131.8,73.8
			c0,1.7,0.2,3.1,1.9,3.1c1.6,0,1.9-1.4,1.9-3.1s-0.2-3.1-1.9-3.1C132,70.6,131.8,72,131.8,73.8z"/>
	</g>
	<path class="st6" d="M17.3,65h78.8 M118,65h50.3"/>
	<g>
		<g>
			<g>
				<path class="st7" d="M22.9,57.1c0-1.4,0.5-2.6,1.4-3.6c0.9-1,2.1-1.4,3.5-1.4s2.6,0.5,3.5,1.4c0.9,1,1.4,2.2,1.4,3.6
					c0,1.6-0.5,2.8-1.5,3.7c-1,0.9-2.2,1.4-3.5,1.4c-1.4,0-2.6-0.4-3.5-1.4C23.3,59.8,22.9,58.6,22.9,57.1z M24.7,57.1
					c0,1.7,0.2,2.8,0.8,3.5c0.6,0.7,1.3,1,2.3,1c1,0,1.7-0.3,2.3-1s0.8-1.8,0.8-3.5c0-1.6-0.2-2.8-0.8-3.5c-0.5-0.7-1.3-1.1-2.3-1.1
					s-1.7,0.4-2.3,1.1S24.7,55.5,24.7,57.1z"/>
				<path class="st7" d="M43.9,52.4v6.2c0,1,0,1.7,0.1,1.9c0,0.2,0.1,0.4,0.3,0.6c0.2,0.1,0.6,0.2,1.1,0.2v0.5c-1.2,0-2,0.1-2.6,0.4
					h-0.1c-0.2-0.4-0.4-1.1-0.4-2.2c-0.4,0.7-1,1.2-1.6,1.6s-1.2,0.6-2,0.6c-0.6,0-1.2-0.1-1.7-0.4s-0.8-0.6-1-1.1s-0.2-1.1-0.2-1.9
					v-3.2c0-1.1,0-1.7-0.1-2c-0.1-0.2-0.2-0.4-0.4-0.6c-0.2-0.1-0.6-0.2-1.1-0.2v-0.5h3.2v6.5c0,0.6,0.1,1.1,0.1,1.4
					c0.1,0.3,0.2,0.6,0.6,0.7c0.3,0.2,0.7,0.3,1.1,0.3c0.6,0,1.1-0.2,1.7-0.6c0.6-0.4,0.9-0.8,1.1-1.2c0.2-0.4,0.3-1.1,0.3-1.9v-2
					c0-1,0-1.6-0.1-1.9c0-0.2-0.1-0.4-0.3-0.6c-0.2-0.2-0.5-0.2-1.1-0.2h-0.2v-0.5C40.6,52.4,43.9,52.4,43.9,52.4z"/>
				<path class="st7" d="M52.3,52.9h-2.8v5.7c0,0.9,0.1,1.4,0.1,1.7s0.2,0.6,0.5,0.7c0.2,0.2,0.5,0.2,0.8,0.2c0.6,0,1-0.3,1.4-0.9
					l0.4,0.2c-0.2,0.5-0.6,0.9-1.1,1.1c-0.4,0.2-0.9,0.4-1.4,0.4c-0.6,0-1.1-0.2-1.4-0.5c-0.4-0.3-0.7-0.7-0.8-1.1
					c-0.1-0.4-0.1-1.2-0.1-2.3v-5.3h-1.4v-0.5c0.6,0,1.2-0.2,1.7-0.8c0.5-0.5,0.8-1.2,0.9-2.2h0.4v2.9h2.8V52.9z"/>
				<path class="st7" d="M56.5,54c0.4-0.6,1-1.1,1.6-1.4c0.6-0.3,1.2-0.5,1.9-0.5c0.7,0,1.4,0.2,1.9,0.5c0.5,0.3,0.8,0.7,1,1.2
					c0.1,0.5,0.2,1.2,0.2,2.3v2.6c0,1.1,0,1.7,0.1,2c0.1,0.2,0.2,0.4,0.4,0.5c0.2,0.1,0.6,0.2,1.1,0.2v0.5h-4.9v-0.5H60
					c0.6,0,0.9-0.1,1.1-0.2c0.2-0.2,0.2-0.4,0.3-0.6c0-0.2,0.1-0.9,0.1-1.9v-2.8c0-0.7-0.1-1.4-0.1-1.7c-0.1-0.4-0.3-0.7-0.6-0.9
					c-0.3-0.2-0.7-0.4-1.3-0.4c-0.6,0-1.1,0.2-1.6,0.5c-0.5,0.4-0.9,0.9-1.2,1.6v3.7c0,1.1,0,1.7,0.1,1.9c0.1,0.2,0.1,0.4,0.4,0.6
					c0.2,0.1,0.6,0.2,1.1,0.2v0.5h-4.7v-0.5h0.2c0.6,0,0.9-0.1,1.1-0.2c0.2-0.2,0.2-0.4,0.3-0.6c0-0.2,0.1-0.9,0.1-1.9v-9.3
					c0-0.9-0.1-1.6-0.2-1.8c-0.2-0.2-0.6-0.4-1.3-0.4v-0.5c1.2,0,2.2-0.2,2.9-0.5h0.2V54z"/>
				<path class="st7" d="M74.5,55.6H68c0,0.4-0.1,0.8-0.1,1c0,1.6,0.2,2.9,0.7,3.7c0.5,0.8,1.3,1.2,2.3,1.2c1.4,0,2.4-0.6,3-1.9h0.6
					c-0.2,0.7-0.7,1.4-1.4,1.8c-0.7,0.4-1.5,0.7-2.4,0.7c-0.8,0-1.6-0.2-2.2-0.6c-0.7-0.4-1.3-1-1.7-1.7c-0.4-0.7-0.7-1.6-0.7-2.7
					c0-1.5,0.4-2.7,1.3-3.7c0.9-1,1.9-1.5,3.2-1.5c1.2,0,2.2,0.4,2.9,1.1S74.5,54.7,74.5,55.6z M72.5,55.1c0-0.2,0.1-0.3,0.1-0.5
					c0-0.7-0.2-1.2-0.6-1.6s-0.9-0.6-1.4-0.6c-1.4,0-2.2,0.9-2.5,2.6C68.1,55.1,72.5,55.1,72.5,55.1z"/>
				<path class="st7" d="M79.3,54.4c0.2-0.7,0.7-1.2,1.2-1.7c0.6-0.4,1.2-0.7,1.7-0.7s0.9,0.2,1.2,0.5c0.3,0.3,0.4,0.6,0.4,0.9
					c0,0.2-0.1,0.4-0.2,0.6c-0.1,0.2-0.3,0.2-0.6,0.2c-0.4,0-0.7-0.3-0.9-0.9c-0.1-0.4-0.4-0.6-0.6-0.6c-0.3,0-0.7,0.2-1.2,0.7
					c-0.4,0.4-0.7,0.9-0.9,1.4c-0.1,0.5-0.2,1.1-0.2,2v1.7c0,1,0,1.6,0.1,1.9c0,0.2,0.1,0.4,0.3,0.6c0.2,0.1,0.6,0.2,1,0.2H81v0.5
					h-5v-0.5h0.2c0.4,0,0.8-0.1,1-0.2c0.2-0.1,0.3-0.3,0.4-0.6c0.1-0.2,0.1-0.9,0.1-2v-2.6c0-1,0-1.6-0.1-1.9c0-0.2-0.1-0.4-0.3-0.6
					c-0.2-0.1-0.6-0.2-1-0.2H76v-0.5c0.7-0.1,1.6-0.3,2.8-0.7C79.2,52.6,79.3,53.4,79.3,54.4z"/>
			</g>
		</g>
		<g>
			<g>
				<path class="st7" d="M87.8,52h0.3c0.2,0.5,0.2,1.1,0.3,1.9c0.6-0.6,1.1-1.1,1.7-1.4S91.4,52,92,52c0.7,0,1.4,0.2,1.8,0.5
					c0.5,0.3,0.8,0.7,0.9,1.1c0.1,0.4,0.2,1.1,0.2,2v2.9c0,1.1,0,1.7,0.1,2c0.1,0.2,0.2,0.4,0.4,0.6c0.2,0.1,0.6,0.2,1.1,0.2v0.5
					h-4.8v-0.5h0.2c0.6,0,0.9-0.1,1.1-0.2c0.2-0.2,0.2-0.4,0.3-0.6c0-0.2,0.1-0.9,0.1-1.9v-3c0-0.7-0.1-1.2-0.1-1.6
					c-0.1-0.3-0.2-0.6-0.6-0.9c-0.3-0.2-0.7-0.4-1.2-0.4c-0.6,0-1.1,0.2-1.6,0.5c-0.5,0.3-1,0.8-1.4,1.5v3.8c0,1.1,0,1.7,0.1,2
					c0.1,0.2,0.2,0.4,0.4,0.6c0.2,0.1,0.6,0.2,1.1,0.2v0.5h-4.7v-0.5c0.5,0,0.9-0.1,1.1-0.2c0.2-0.1,0.3-0.2,0.4-0.5
					s0.1-0.9,0.1-2.1v-2.8c0-1.1,0-1.7-0.1-2c-0.1-0.2-0.2-0.4-0.4-0.5c-0.2-0.1-0.6-0.2-1.1-0.2v-0.5C86.1,52.4,86.9,52.3,87.8,52z
					"/>
			</g>
		</g>
	</g>
	<g>
		<path class="st8" d="M22.9,57.1c0-1.4,0.5-2.6,1.4-3.6c0.9-1,2.1-1.4,3.5-1.4s2.6,0.5,3.5,1.4c0.9,1,1.4,2.2,1.4,3.6
			c0,1.6-0.5,2.8-1.5,3.7c-1,0.9-2.2,1.4-3.5,1.4c-1.4,0-2.6-0.4-3.5-1.4C23.3,59.8,22.9,58.6,22.9,57.1z M24.7,57.1
			c0,1.7,0.2,2.8,0.8,3.5c0.6,0.7,1.3,1,2.3,1c1,0,1.7-0.3,2.3-1s0.8-1.8,0.8-3.5c0-1.6-0.2-2.8-0.8-3.5c-0.5-0.7-1.3-1.1-2.3-1.1
			s-1.7,0.4-2.3,1.1S24.7,55.5,24.7,57.1z"/>
		<path class="st8" d="M43.9,52.4v6.2c0,1,0,1.7,0.1,1.9c0,0.2,0.1,0.4,0.3,0.6c0.2,0.1,0.6,0.2,1.1,0.2v0.5c-1.2,0-2,0.1-2.6,0.4
			h-0.1c-0.2-0.4-0.4-1.1-0.4-2.2c-0.4,0.7-1,1.2-1.6,1.6s-1.2,0.6-2,0.6c-0.6,0-1.2-0.1-1.7-0.4s-0.8-0.6-1-1.1s-0.2-1.1-0.2-1.9
			v-3.2c0-1.1,0-1.7-0.1-2c-0.1-0.2-0.2-0.4-0.4-0.6c-0.2-0.1-0.6-0.2-1.1-0.2v-0.5h3.2v6.5c0,0.6,0.1,1.1,0.1,1.4
			c0.1,0.3,0.2,0.6,0.6,0.7c0.3,0.2,0.7,0.3,1.1,0.3c0.6,0,1.1-0.2,1.7-0.6c0.6-0.4,0.9-0.8,1.1-1.2c0.2-0.4,0.3-1.1,0.3-1.9v-2
			c0-1,0-1.6-0.1-1.9c0-0.2-0.1-0.4-0.3-0.6c-0.2-0.2-0.5-0.2-1.1-0.2h-0.2v-0.5C40.6,52.4,43.9,52.4,43.9,52.4z"/>
		<path class="st8" d="M52.3,52.9h-2.8v5.7c0,0.9,0.1,1.4,0.1,1.7s0.2,0.6,0.5,0.7c0.2,0.2,0.5,0.2,0.8,0.2c0.6,0,1-0.3,1.4-0.9
			l0.4,0.2c-0.2,0.5-0.6,0.9-1.1,1.1c-0.4,0.2-0.9,0.4-1.4,0.4c-0.6,0-1.1-0.2-1.4-0.5c-0.4-0.3-0.7-0.7-0.8-1.1
			c-0.1-0.4-0.1-1.2-0.1-2.3v-5.3h-1.4v-0.5c0.6,0,1.2-0.2,1.7-0.8c0.5-0.5,0.8-1.2,0.9-2.2h0.4v2.9h2.8V52.9z"/>
		<path class="st8" d="M56.5,54c0.4-0.6,1-1.1,1.6-1.4c0.6-0.3,1.2-0.5,1.9-0.5c0.7,0,1.4,0.2,1.9,0.5c0.5,0.3,0.8,0.7,1,1.2
			c0.1,0.5,0.2,1.2,0.2,2.3v2.6c0,1.1,0,1.7,0.1,2c0.1,0.2,0.2,0.4,0.4,0.5c0.2,0.1,0.6,0.2,1.1,0.2v0.5h-4.9v-0.5H60
			c0.6,0,0.9-0.1,1.1-0.2c0.2-0.2,0.2-0.4,0.3-0.6c0-0.2,0.1-0.9,0.1-1.9v-2.8c0-0.7-0.1-1.4-0.1-1.7c-0.1-0.4-0.3-0.7-0.6-0.9
			c-0.3-0.2-0.7-0.4-1.3-0.4c-0.6,0-1.1,0.2-1.6,0.5c-0.5,0.4-0.9,0.9-1.2,1.6v3.7c0,1.1,0,1.7,0.1,1.9c0.1,0.2,0.1,0.4,0.4,0.6
			c0.2,0.1,0.6,0.2,1.1,0.2v0.5h-4.7v-0.5h0.2c0.6,0,0.9-0.1,1.1-0.2c0.2-0.2,0.2-0.4,0.3-0.6c0-0.2,0.1-0.9,0.1-1.9v-9.3
			c0-0.9-0.1-1.6-0.2-1.8c-0.2-0.2-0.6-0.4-1.3-0.4v-0.5c1.2,0,2.2-0.2,2.9-0.5h0.2V54z"/>
		<path class="st8" d="M74.5,55.6H68c0,0.4-0.1,0.8-0.1,1c0,1.6,0.2,2.9,0.7,3.7c0.5,0.8,1.3,1.2,2.3,1.2c1.4,0,2.4-0.6,3-1.9h0.6
			c-0.2,0.7-0.7,1.4-1.4,1.8c-0.7,0.4-1.5,0.7-2.4,0.7c-0.8,0-1.6-0.2-2.2-0.6c-0.7-0.4-1.3-1-1.7-1.7c-0.4-0.7-0.7-1.6-0.7-2.7
			c0-1.5,0.4-2.7,1.3-3.7c0.9-1,1.9-1.5,3.2-1.5c1.2,0,2.2,0.4,2.9,1.1S74.5,54.7,74.5,55.6z M72.5,55.1c0-0.2,0.1-0.3,0.1-0.5
			c0-0.7-0.2-1.2-0.6-1.6s-0.9-0.6-1.4-0.6c-1.4,0-2.2,0.9-2.5,2.6C68.1,55.1,72.5,55.1,72.5,55.1z"/>
		<path class="st8" d="M79.3,54.4c0.2-0.7,0.7-1.2,1.2-1.7c0.6-0.4,1.2-0.7,1.7-0.7s0.9,0.2,1.2,0.5c0.3,0.3,0.4,0.6,0.4,0.9
			c0,0.2-0.1,0.4-0.2,0.6c-0.1,0.2-0.3,0.2-0.6,0.2c-0.4,0-0.7-0.3-0.9-0.9c-0.1-0.4-0.4-0.6-0.6-0.6c-0.3,0-0.7,0.2-1.2,0.7
			c-0.4,0.4-0.7,0.9-0.9,1.4c-0.1,0.5-0.2,1.1-0.2,2v1.7c0,1,0,1.6,0.1,1.9c0,0.2,0.1,0.4,0.3,0.6c0.2,0.1,0.6,0.2,1,0.2H81v0.5h-5
			v-0.5h0.2c0.4,0,0.8-0.1,1-0.2c0.2-0.1,0.3-0.3,0.4-0.6c0.1-0.2,0.1-0.9,0.1-2v-2.6c0-1,0-1.6-0.1-1.9c0-0.2-0.1-0.4-0.3-0.6
			c-0.2-0.1-0.6-0.2-1-0.2H76v-0.5c0.7-0.1,1.6-0.3,2.8-0.7C79.2,52.6,79.3,53.4,79.3,54.4z"/>
	</g>
	<g>
		<path class="st8" d="M87.8,52h0.3c0.2,0.5,0.2,1.1,0.3,1.9c0.6-0.6,1.1-1.1,1.7-1.4S91.4,52,92,52c0.7,0,1.4,0.2,1.8,0.5
			c0.5,0.3,0.8,0.7,0.9,1.1c0.1,0.4,0.2,1.1,0.2,2v2.9c0,1.1,0,1.7,0.1,2c0.1,0.2,0.2,0.4,0.4,0.6c0.2,0.1,0.6,0.2,1.1,0.2v0.5h-4.8
			v-0.5h0.2c0.6,0,0.9-0.1,1.1-0.2c0.2-0.2,0.2-0.4,0.3-0.6c0-0.2,0.1-0.9,0.1-1.9v-3c0-0.7-0.1-1.2-0.1-1.6
			c-0.1-0.3-0.2-0.6-0.6-0.9c-0.3-0.2-0.7-0.4-1.2-0.4c-0.6,0-1.1,0.2-1.6,0.5c-0.5,0.3-1,0.8-1.4,1.5v3.8c0,1.1,0,1.7,0.1,2
			c0.1,0.2,0.2,0.4,0.4,0.6c0.2,0.1,0.6,0.2,1.1,0.2v0.5h-4.7v-0.5c0.5,0,0.9-0.1,1.1-0.2c0.2-0.1,0.3-0.2,0.4-0.5s0.1-0.9,0.1-2.1
			v-2.8c0-1.1,0-1.7-0.1-2c-0.1-0.2-0.2-0.4-0.4-0.5c-0.2-0.1-0.6-0.2-1.1-0.2v-0.5C86.1,52.4,86.9,52.3,87.8,52z"/>
	</g>
	<path class="st8" d="M24.9,42c1.1-0.1,0.4,1.2,0.1,1.6c-4.1,4.4-2.2,0.8-1.7,0c0.7-1.6,0.3-2.7-2.8-2.4c-6.8,0.7-9.6,8-4.4,10.6
		c0.3,0.2,0.7,0.4,1.3,0.7c7.7,4.7,0.5,10.3-5.8,11.3C3.6,65,0.3,61.4,3.4,58.1c1.4-1.6,7.5-4.4,10.4-2.7c0.4,0.2-0.1,0.4-0.4,0.2
		c-3-0.8-7.8,1.2-9.3,2.8c-2.7,3.2,1.1,5,7.5,4c6.8-1.1,9.1-5.6,5.5-8.8c0,0,0.1,0.1-0.2-0.1c-0.4-0.3-1.1-0.8-1.6-1.1
		c-2.1-1.1-4.2-2.4-4.5-4.6c-0.1-3.5,4.4-7.8,9.6-7.8c1.3-0.1,3.4,0.1,3.7,1.9c0.1,0.2-0.1,0.7,0.1,0.6C24.4,42.3,24.8,42,24.9,42
		L24.9,42z"/>
	<g>
		<g>
			<g>
				<path class="st7" d="M124.1,52h0.1c0.2,0.5,0.3,1.2,0.3,2c0.5-0.7,1.1-1.1,1.7-1.5c0.6-0.3,1.2-0.5,1.9-0.5
					c0.7,0,1.4,0.2,1.9,0.5c0.5,0.4,0.8,0.9,1,1.6c0.6-0.7,1.2-1.2,1.8-1.6c0.6-0.4,1.2-0.5,1.9-0.5c0.7,0,1.4,0.2,1.9,0.5
					s0.8,0.7,0.9,1.1c0.1,0.4,0.2,1.1,0.2,2.1v2.8c0,1.1,0,1.7,0.1,2c0.1,0.2,0.2,0.4,0.4,0.5c0.2,0.1,0.6,0.2,1.1,0.2v0.5h-4.7
					v-0.5c0.5,0,0.9-0.1,1.1-0.2s0.3-0.2,0.4-0.5c0.1-0.2,0.1-0.9,0.1-2v-3.1c0-0.6-0.1-1.1-0.1-1.4c-0.1-0.3-0.2-0.6-0.6-0.8
					c-0.3-0.2-0.7-0.4-1.2-0.4s-1,0.2-1.5,0.5s-1,0.9-1.5,1.6v3.7c0,1,0,1.6,0.1,1.9c0,0.2,0.1,0.4,0.3,0.6c0.2,0.1,0.5,0.2,1,0.2
					v0.5H128v-0.5c0.5,0,0.9-0.1,1.1-0.2s0.3-0.2,0.4-0.5c0.1-0.2,0.1-0.9,0.1-2.1v-2.6c0-0.8-0.1-1.4-0.1-1.8
					c-0.1-0.4-0.2-0.7-0.6-0.9c-0.3-0.2-0.7-0.4-1.2-0.4s-0.9,0.1-1.4,0.4c-0.5,0.3-1,0.7-1.5,1.4v3.9c0,1.1,0,1.7,0.1,1.9
					c0,0.2,0.1,0.4,0.4,0.6c0.2,0.1,0.6,0.2,1.1,0.2v0.5h-4.6v-0.5c0.5,0,0.9-0.1,1.1-0.2c0.2-0.1,0.3-0.2,0.4-0.5
					c0.1-0.2,0.1-0.9,0.1-2.1v-2.8c0-1.1,0-1.7-0.1-2c-0.1-0.2-0.1-0.4-0.4-0.6c-0.2-0.1-0.6-0.2-1.1-0.2v-0.5
					C122.5,52.4,123.4,52.2,124.1,52z"/>
				<path class="st7" d="M143.3,52v6.5c0,1,0,1.6,0.1,1.9c0,0.2,0.1,0.4,0.3,0.6c0.2,0.1,0.6,0.2,1,0.2h0.2v0.5h-5v-0.5h0.4
					c0.6,0,0.9-0.1,1.1-0.2c0.2-0.2,0.2-0.4,0.3-0.6c0-0.2,0.1-0.9,0.1-1.9v-2.9c0-1.1-0.1-1.7-0.1-2c-0.1-0.2-0.2-0.4-0.4-0.4
					s-0.5-0.1-0.9-0.1H140v-0.5c1.4-0.1,2.4-0.3,3.2-0.6L143.3,52L143.3,52z M141.2,47.3c0-0.3,0.1-0.6,0.4-0.9
					c0.2-0.2,0.5-0.4,0.9-0.4c0.3,0,0.6,0.1,0.8,0.4c0.2,0.2,0.4,0.5,0.4,0.9c0,0.3-0.1,0.6-0.4,0.9s-0.5,0.4-0.8,0.4
					c-0.3,0-0.6-0.1-0.9-0.4S141.2,47.6,141.2,47.3z"/>
				<path class="st7" d="M149,46v12.5c0,1,0,1.6,0.1,1.9c0,0.2,0.1,0.4,0.3,0.6c0.2,0.1,0.6,0.2,1,0.2h0.2v0.5h-5v-0.5h0.3
					c0.4,0,0.8-0.1,1-0.2c0.2-0.1,0.3-0.3,0.4-0.6c0.1-0.2,0.1-0.9,0.1-2v-9.1c0-1-0.1-1.6-0.2-1.9c-0.2-0.2-0.6-0.4-1.3-0.4v-0.5
					c0.4,0,1-0.1,1.6-0.2c0.6-0.1,1.1-0.2,1.3-0.3L149,46L149,46z"/>
				<path class="st7" d="M160.4,55.6h-6.5c0,0.4-0.1,0.8-0.1,1c0,1.6,0.2,2.9,0.7,3.7c0.5,0.8,1.3,1.2,2.3,1.2c1.4,0,2.4-0.6,3-1.9
					h0.6c-0.2,0.7-0.7,1.4-1.4,1.8c-0.7,0.4-1.5,0.7-2.4,0.7c-0.8,0-1.6-0.2-2.2-0.6c-0.7-0.4-1.3-1-1.7-1.7
					c-0.4-0.7-0.7-1.6-0.7-2.7c0-1.5,0.4-2.7,1.3-3.7c0.9-1,1.9-1.5,3.2-1.5c1.2,0,2.2,0.4,2.9,1.1C160,53.9,160.4,54.7,160.4,55.6z
					 M158.4,55.1c0-0.2,0.1-0.3,0.1-0.5c0-0.7-0.2-1.2-0.6-1.6c-0.4-0.4-0.9-0.6-1.4-0.6c-1.4,0-2.2,0.9-2.5,2.6
					C154,55.1,158.4,55.1,158.4,55.1z"/>
				<path class="st7" d="M162.3,62.1v-3h0.4c0.5,1.8,1.4,2.7,2.8,2.7c0.6,0,1-0.2,1.3-0.5c0.3-0.4,0.4-0.7,0.4-1.2
					c0-0.5-0.1-0.9-0.4-1.2c-0.3-0.3-0.9-0.7-1.8-1.1c-0.9-0.4-1.6-0.9-2.1-1.4c-0.4-0.4-0.6-1-0.6-1.6c0-0.6,0.2-1.2,0.7-1.7
					c0.4-0.6,1.1-0.9,1.9-0.9s1.5,0.3,2.1,1c0.1-0.1,0.2-0.4,0.4-0.8h0.4v2.9h-0.4c-0.1-0.7-0.4-1.3-0.9-1.8
					c-0.4-0.5-0.9-0.7-1.6-0.7c-0.4,0-0.8,0.1-1.1,0.4s-0.4,0.6-0.4,1c0,0.4,0.2,0.7,0.5,1.1c0.3,0.3,0.9,0.6,1.7,1.1
					c1.3,0.6,2.1,1.2,2.4,1.7c0.3,0.6,0.4,1.1,0.4,1.6c0,0.8-0.2,1.5-0.8,2c-0.6,0.5-1.2,0.7-2.1,0.7c-0.9,0-1.6-0.4-2.3-1.1
					c-0.2,0.2-0.4,0.6-0.5,1h-0.5V62.1z"/>
			</g>
		</g>
	</g>
	<g>
		<path class="st8" d="M124.1,52h0.1c0.2,0.5,0.3,1.2,0.3,2c0.5-0.7,1.1-1.1,1.7-1.5c0.6-0.3,1.2-0.5,1.9-0.5c0.7,0,1.4,0.2,1.9,0.5
			c0.5,0.4,0.8,0.9,1,1.6c0.6-0.7,1.2-1.2,1.8-1.6c0.6-0.4,1.2-0.5,1.9-0.5c0.7,0,1.4,0.2,1.9,0.5s0.8,0.7,0.9,1.1
			c0.1,0.4,0.2,1.1,0.2,2.1v2.8c0,1.1,0,1.7,0.1,2c0.1,0.2,0.2,0.4,0.4,0.5c0.2,0.1,0.6,0.2,1.1,0.2v0.5h-4.7v-0.5
			c0.5,0,0.9-0.1,1.1-0.2s0.3-0.2,0.4-0.5c0.1-0.2,0.1-0.9,0.1-2v-3.1c0-0.6-0.1-1.1-0.1-1.4c-0.1-0.3-0.2-0.6-0.6-0.8
			c-0.3-0.2-0.7-0.4-1.2-0.4s-1,0.2-1.5,0.5s-1,0.9-1.5,1.6v3.7c0,1,0,1.6,0.1,1.9c0,0.2,0.1,0.4,0.3,0.6c0.2,0.1,0.5,0.2,1,0.2v0.5
			H128v-0.5c0.5,0,0.9-0.1,1.1-0.2s0.3-0.2,0.4-0.5c0.1-0.2,0.1-0.9,0.1-2.1v-2.6c0-0.8-0.1-1.4-0.1-1.8c-0.1-0.4-0.2-0.7-0.6-0.9
			c-0.3-0.2-0.7-0.4-1.2-0.4s-0.9,0.1-1.4,0.4c-0.5,0.3-1,0.7-1.5,1.4v3.9c0,1.1,0,1.7,0.1,1.9c0,0.2,0.1,0.4,0.4,0.6
			c0.2,0.1,0.6,0.2,1.1,0.2v0.5h-4.6v-0.5c0.5,0,0.9-0.1,1.1-0.2c0.2-0.1,0.3-0.2,0.4-0.5c0.1-0.2,0.1-0.9,0.1-2.1v-2.8
			c0-1.1,0-1.7-0.1-2c-0.1-0.2-0.1-0.4-0.4-0.6c-0.2-0.1-0.6-0.2-1.1-0.2v-0.5C122.5,52.4,123.4,52.2,124.1,52z"/>
		<path class="st8" d="M143.3,52v6.5c0,1,0,1.6,0.1,1.9c0,0.2,0.1,0.4,0.3,0.6c0.2,0.1,0.6,0.2,1,0.2h0.2v0.5h-5v-0.5h0.4
			c0.6,0,0.9-0.1,1.1-0.2c0.2-0.2,0.2-0.4,0.3-0.6c0-0.2,0.1-0.9,0.1-1.9v-2.9c0-1.1-0.1-1.7-0.1-2c-0.1-0.2-0.2-0.4-0.4-0.4
			s-0.5-0.1-0.9-0.1H140v-0.5c1.4-0.1,2.4-0.3,3.2-0.6L143.3,52L143.3,52z M141.2,47.3c0-0.3,0.1-0.6,0.4-0.9
			c0.2-0.2,0.5-0.4,0.9-0.4c0.3,0,0.6,0.1,0.8,0.4c0.2,0.2,0.4,0.5,0.4,0.9c0,0.3-0.1,0.6-0.4,0.9s-0.5,0.4-0.8,0.4
			c-0.3,0-0.6-0.1-0.9-0.4S141.2,47.6,141.2,47.3z"/>
		<path class="st8" d="M149,46v12.5c0,1,0,1.6,0.1,1.9c0,0.2,0.1,0.4,0.3,0.6c0.2,0.1,0.6,0.2,1,0.2h0.2v0.5h-5v-0.5h0.3
			c0.4,0,0.8-0.1,1-0.2c0.2-0.1,0.3-0.3,0.4-0.6c0.1-0.2,0.1-0.9,0.1-2v-9.1c0-1-0.1-1.6-0.2-1.9c-0.2-0.2-0.6-0.4-1.3-0.4v-0.5
			c0.4,0,1-0.1,1.6-0.2c0.6-0.1,1.1-0.2,1.3-0.3L149,46L149,46z"/>
		<path class="st8" d="M160.4,55.6h-6.5c0,0.4-0.1,0.8-0.1,1c0,1.6,0.2,2.9,0.7,3.7c0.5,0.8,1.3,1.2,2.3,1.2c1.4,0,2.4-0.6,3-1.9
			h0.6c-0.2,0.7-0.7,1.4-1.4,1.8c-0.7,0.4-1.5,0.7-2.4,0.7c-0.8,0-1.6-0.2-2.2-0.6c-0.7-0.4-1.3-1-1.7-1.7c-0.4-0.7-0.7-1.6-0.7-2.7
			c0-1.5,0.4-2.7,1.3-3.7c0.9-1,1.9-1.5,3.2-1.5c1.2,0,2.2,0.4,2.9,1.1C160,53.9,160.4,54.7,160.4,55.6z M158.4,55.1
			c0-0.2,0.1-0.3,0.1-0.5c0-0.7-0.2-1.2-0.6-1.6c-0.4-0.4-0.9-0.6-1.4-0.6c-1.4,0-2.2,0.9-2.5,2.6C154,55.1,158.4,55.1,158.4,55.1z"
			/>
		<path class="st8" d="M162.3,62.1v-3h0.4c0.5,1.8,1.4,2.7,2.8,2.7c0.6,0,1-0.2,1.3-0.5c0.3-0.4,0.4-0.7,0.4-1.2
			c0-0.5-0.1-0.9-0.4-1.2c-0.3-0.3-0.9-0.7-1.8-1.1c-0.9-0.4-1.6-0.9-2.1-1.4c-0.4-0.4-0.6-1-0.6-1.6c0-0.6,0.2-1.2,0.7-1.7
			c0.4-0.6,1.1-0.9,1.9-0.9s1.5,0.3,2.1,1c0.1-0.1,0.2-0.4,0.4-0.8h0.4v2.9h-0.4c-0.1-0.7-0.4-1.3-0.9-1.8c-0.4-0.5-0.9-0.7-1.6-0.7
			c-0.4,0-0.8,0.1-1.1,0.4s-0.4,0.6-0.4,1c0,0.4,0.2,0.7,0.5,1.1c0.3,0.3,0.9,0.6,1.7,1.1c1.3,0.6,2.1,1.2,2.4,1.7
			c0.3,0.6,0.4,1.1,0.4,1.6c0,0.8-0.2,1.5-0.8,2c-0.6,0.5-1.2,0.7-2.1,0.7c-0.9,0-1.6-0.4-2.3-1.1c-0.2,0.2-0.4,0.6-0.5,1h-0.5V62.1
			z"/>
	</g>
	<path class="st8" d="M124.2,42c1.1-0.1,0.4,1.2,0.1,1.6c-4.1,4.4-2.2,0.8-1.7,0c0.7-1.6,0.3-2.7-2.8-2.4c-6.8,0.7-9.6,8-4.4,10.6
		c0.3,0.2,0.7,0.4,1.3,0.7c7.7,4.7,0.5,10.3-5.8,11.3c-8.1,1.2-11.3-2.4-8.3-5.7c1.4-1.6,7.5-4.4,10.4-2.7c0.4,0.2-0.1,0.4-0.4,0.2
		c-3-0.7-7.9,1.3-9.3,3c-2.7,3.2,1.1,5,7.5,4c6.8-1.1,9.1-5.6,5.5-8.8c0,0,0.1,0.1-0.2-0.1c-0.4-0.3-1.1-0.8-1.6-1.1
		c-2.1-1.1-4.2-2.4-4.5-4.6c-0.1-3.5,4.4-7.8,9.6-7.8c1.3-0.1,3.4,0.1,3.7,1.9c0.1,0.2-0.1,0.7,0.1,0.6
		C123.8,42.3,124.1,42,124.2,42L124.2,42z"/>
</g>
<g>
	<path d="M34.1,88.8c-0.1-0.1-0.2-0.2-0.4-0.3c-0.2-0.1-0.4-0.2-0.6-0.3s-0.4-0.2-0.7-0.2c-0.2-0.1-0.5-0.1-0.8-0.1
		c-0.7,0-1.2,0.1-1.5,0.4c-0.3,0.3-0.5,0.6-0.5,1.1c0,0.2,0,0.4,0.1,0.6c0.1,0.2,0.2,0.3,0.4,0.4c0.2,0.1,0.4,0.2,0.7,0.3
		c0.3,0.1,0.6,0.2,1.1,0.3c0.5,0.1,0.9,0.2,1.3,0.3c0.4,0.1,0.7,0.3,1,0.5c0.3,0.2,0.5,0.4,0.6,0.7s0.2,0.6,0.2,1
		c0,0.4-0.1,0.8-0.3,1.1c-0.2,0.3-0.4,0.6-0.7,0.8c-0.3,0.2-0.6,0.4-1,0.5C32.7,96,32.2,96,31.8,96c-0.7,0-1.4-0.1-2-0.3
		c-0.6-0.2-1.2-0.5-1.7-0.9l0.5-1c0.1,0.1,0.3,0.3,0.5,0.4c0.2,0.1,0.5,0.3,0.7,0.4s0.6,0.2,0.9,0.3c0.3,0.1,0.6,0.1,1,0.1
		c0.6,0,1.1-0.1,1.5-0.3c0.4-0.2,0.5-0.6,0.5-1c0-0.3-0.1-0.5-0.2-0.6c-0.1-0.2-0.3-0.3-0.5-0.5c-0.2-0.1-0.5-0.2-0.8-0.3
		c-0.3-0.1-0.7-0.2-1.1-0.3c-0.5-0.1-0.9-0.2-1.2-0.4s-0.6-0.3-0.9-0.5c-0.2-0.2-0.4-0.4-0.5-0.6c-0.1-0.3-0.2-0.6-0.2-0.9
		c0-0.4,0.1-0.8,0.2-1.1c0.2-0.3,0.4-0.6,0.7-0.8s0.6-0.4,1-0.5s0.8-0.2,1.3-0.2c0.6,0,1.2,0.1,1.6,0.3c0.5,0.2,0.9,0.4,1.3,0.7
		L34.1,88.8z"/>
	<path d="M38.4,96c-0.7,0-1.2-0.2-1.6-0.7c-0.4-0.5-0.5-1.2-0.5-2.1v-4h1.1V93c0,1.4,0.5,2,1.4,2c0.5,0,0.9-0.1,1.3-0.4
		c0.4-0.3,0.7-0.7,0.9-1.2v-4.1h1.1v5.3c0,0.3,0.1,0.4,0.4,0.4v1c-0.1,0-0.2,0-0.2,0c-0.1,0-0.1,0-0.2,0c-0.3,0-0.5-0.1-0.6-0.2
		c-0.1-0.1-0.2-0.3-0.2-0.5l0-0.8c-0.3,0.5-0.7,0.9-1.2,1.1C39.5,95.9,38.9,96,38.4,96z"/>
	<path d="M46.3,96c-0.5,0-1.1-0.1-1.6-0.2c-0.5-0.2-1-0.4-1.3-0.7l0.5-0.7c0.4,0.3,0.8,0.5,1.2,0.7c0.4,0.1,0.8,0.2,1.2,0.2
		c0.5,0,0.9-0.1,1.1-0.3c0.3-0.2,0.4-0.5,0.4-0.8c0-0.2,0-0.3-0.1-0.4s-0.2-0.2-0.3-0.3c-0.2-0.1-0.3-0.2-0.6-0.2
		C46.6,93.1,46.3,93,46,93c-0.4-0.1-0.7-0.2-1-0.3c-0.3-0.1-0.5-0.2-0.7-0.3s-0.3-0.3-0.4-0.5c-0.1-0.2-0.1-0.4-0.1-0.7
		c0-0.3,0.1-0.6,0.2-0.9c0.1-0.3,0.3-0.5,0.5-0.6c0.2-0.2,0.5-0.3,0.8-0.4s0.6-0.1,1-0.1c0.5,0,1,0.1,1.4,0.2
		c0.4,0.2,0.8,0.4,1.1,0.6l-0.5,0.7c-0.3-0.2-0.6-0.4-0.9-0.6C47,90.1,46.6,90,46.3,90c-0.4,0-0.8,0.1-1,0.3
		c-0.3,0.2-0.4,0.5-0.4,0.8c0,0.2,0,0.3,0.1,0.4c0.1,0.1,0.1,0.2,0.3,0.3c0.1,0.1,0.3,0.1,0.5,0.2c0.2,0.1,0.4,0.1,0.7,0.2
		c0.4,0.1,0.8,0.2,1.1,0.3c0.3,0.1,0.6,0.2,0.8,0.4c0.2,0.1,0.4,0.3,0.5,0.5c0.1,0.2,0.2,0.4,0.2,0.7c0,0.6-0.2,1.1-0.7,1.5
		C47.8,95.9,47.1,96,46.3,96z"/>
	<path d="M52,96c-0.3,0-0.6-0.1-0.9-0.2c-0.3-0.1-0.5-0.2-0.7-0.4c-0.2-0.2-0.4-0.4-0.5-0.6c-0.1-0.2-0.2-0.5-0.2-0.8
		c0-0.3,0.1-0.6,0.2-0.9s0.3-0.5,0.6-0.7c0.2-0.2,0.5-0.3,0.9-0.4c0.3-0.1,0.7-0.1,1.1-0.1c0.3,0,0.6,0,1,0.1
		c0.3,0.1,0.6,0.1,0.9,0.2v-0.5c0-0.5-0.2-1-0.5-1.3c-0.3-0.3-0.7-0.5-1.3-0.5c-0.7,0-1.4,0.3-2.1,0.8L50.2,90
		c0.4-0.3,0.9-0.5,1.3-0.6c0.4-0.1,0.9-0.2,1.3-0.2c0.8,0,1.5,0.2,2,0.7c0.5,0.5,0.7,1.1,0.7,2v2.7c0,0.3,0.1,0.4,0.4,0.4v1
		c-0.1,0-0.2,0-0.2,0c-0.1,0-0.1,0-0.2,0c-0.2,0-0.4-0.1-0.5-0.2c-0.2-0.1-0.3-0.3-0.3-0.5l0-0.5c-0.2,0.2-0.3,0.4-0.5,0.5
		c-0.2,0.2-0.4,0.3-0.6,0.4s-0.4,0.2-0.7,0.2S52.2,96,52,96z M52.3,95.2c0.4,0,0.7-0.1,1-0.2s0.6-0.3,0.8-0.6
		c0.2-0.2,0.2-0.4,0.2-0.5v-1c-0.3-0.1-0.5-0.2-0.8-0.2c-0.3-0.1-0.6-0.1-0.8-0.1c-0.6,0-1,0.1-1.4,0.3c-0.3,0.2-0.5,0.6-0.5,1
		c0,0.2,0,0.3,0.1,0.5c0.1,0.2,0.2,0.3,0.3,0.4s0.3,0.2,0.5,0.3C51.9,95.2,52.1,95.2,52.3,95.2z"/>
	<path d="M63,95.9h-1.1v-3.7c0-0.7-0.1-1.2-0.3-1.5c-0.2-0.3-0.5-0.5-1-0.5c-0.2,0-0.5,0-0.7,0.1s-0.4,0.2-0.6,0.4
		c-0.2,0.2-0.4,0.3-0.5,0.5c-0.2,0.2-0.3,0.4-0.3,0.7v4h-1.1v-6.6h1v1.4c0.3-0.5,0.6-0.8,1.1-1.1c0.5-0.3,1-0.4,1.6-0.4
		c0.4,0,0.7,0.1,1,0.2c0.3,0.1,0.5,0.3,0.6,0.6c0.2,0.2,0.3,0.5,0.3,0.9C63,91.2,63,91.6,63,92V95.9z"/>
	<path d="M74.5,94.7c-0.8,0.9-1.7,1.3-2.7,1.3c-0.6,0-1.2-0.1-1.7-0.4c-0.5-0.3-1-0.6-1.3-1c-0.4-0.4-0.7-0.9-0.9-1.5
		c-0.2-0.5-0.3-1.1-0.3-1.7c0-0.6,0.1-1.2,0.3-1.7c0.2-0.5,0.5-1,0.9-1.4s0.8-0.8,1.3-1c0.5-0.2,1.1-0.4,1.7-0.4
		c0.9,0,1.6,0.2,2.1,0.5c0.6,0.4,1,0.8,1.3,1.4l-0.9,0.6c-0.3-0.5-0.6-0.9-1.1-1.2c-0.4-0.3-1-0.4-1.5-0.4c-0.5,0-0.9,0.1-1.2,0.3
		c-0.4,0.2-0.7,0.5-1,0.8c-0.3,0.3-0.5,0.7-0.6,1.1c-0.1,0.4-0.2,0.9-0.2,1.3c0,0.5,0.1,0.9,0.2,1.4c0.2,0.4,0.4,0.8,0.7,1.1
		c0.3,0.3,0.6,0.6,1,0.8c0.4,0.2,0.8,0.3,1.2,0.3c1,0,1.9-0.5,2.7-1.4v-1.2h-1.9v-0.9h2.9v4.5h-1V94.7z"/>
	<path d="M80.5,90.3c-0.6,0-1.1,0.2-1.5,0.4c-0.4,0.3-0.7,0.6-0.9,1.1v4.1H77v-6.6h1v1.5c0.2-0.5,0.5-0.8,0.9-1.1s0.8-0.5,1.2-0.5
		c0.1,0,0.2,0,0.2,0c0.1,0,0.1,0,0.2,0V90.3z"/>
	<path d="M84.1,96c-0.5,0-1-0.1-1.4-0.3c-0.4-0.2-0.8-0.4-1.1-0.7c-0.3-0.3-0.5-0.7-0.7-1.1c-0.2-0.4-0.2-0.9-0.2-1.3
		s0.1-0.9,0.2-1.3s0.4-0.8,0.7-1.1c0.3-0.3,0.7-0.6,1.1-0.7c0.4-0.2,0.9-0.3,1.4-0.3s1,0.1,1.4,0.3c0.4,0.2,0.8,0.4,1,0.7
		c0.3,0.3,0.5,0.7,0.7,1.1c0.2,0.4,0.2,0.8,0.2,1.3c0,0.1,0,0.2,0,0.3c0,0.1,0,0.1,0,0.2h-5.5c0,0.3,0.1,0.6,0.2,0.9
		s0.3,0.5,0.5,0.7s0.4,0.3,0.7,0.5c0.3,0.1,0.5,0.2,0.8,0.2c0.2,0,0.4,0,0.6-0.1c0.2-0.1,0.4-0.1,0.5-0.2c0.2-0.1,0.3-0.2,0.5-0.3
		c0.1-0.1,0.2-0.3,0.3-0.5l1,0.3c-0.1,0.2-0.3,0.5-0.5,0.7c-0.2,0.2-0.4,0.4-0.7,0.5c-0.2,0.1-0.5,0.3-0.8,0.3
		C84.7,96,84.4,96,84.1,96z M86.3,92.2c0-0.3-0.1-0.6-0.2-0.9c-0.1-0.3-0.3-0.5-0.5-0.7c-0.2-0.2-0.4-0.3-0.7-0.4
		c-0.3-0.1-0.5-0.2-0.8-0.2c-0.3,0-0.6,0.1-0.8,0.2c-0.3,0.1-0.5,0.3-0.7,0.4s-0.4,0.4-0.5,0.7s-0.2,0.5-0.2,0.9H86.3z"/>
	<path d="M91.3,96c-0.4,0-0.9-0.1-1.2-0.3c-0.4-0.2-0.7-0.4-1-0.7c-0.3-0.3-0.5-0.7-0.6-1.1c-0.1-0.4-0.2-0.8-0.2-1.3
		c0-0.5,0.1-0.9,0.2-1.3c0.1-0.4,0.4-0.8,0.6-1.1c0.3-0.3,0.6-0.6,1-0.7s0.8-0.3,1.2-0.3c0.6,0,1,0.1,1.4,0.4c0.4,0.3,0.7,0.6,1,1
		v-1.3h1v6.5c0,0.5-0.1,0.9-0.3,1.2c-0.2,0.4-0.4,0.7-0.7,0.9c-0.3,0.2-0.7,0.4-1.1,0.6c-0.4,0.1-0.8,0.2-1.3,0.2
		c-0.8,0-1.4-0.1-1.8-0.4s-0.9-0.6-1.2-1.1l0.6-0.6c0.3,0.4,0.6,0.7,1,0.9c0.4,0.2,0.9,0.3,1.3,0.3c0.3,0,0.6,0,0.9-0.1
		c0.3-0.1,0.5-0.2,0.7-0.4c0.2-0.2,0.4-0.4,0.5-0.6c0.1-0.3,0.2-0.6,0.2-0.9v-1.2c-0.1,0.2-0.3,0.4-0.5,0.6s-0.4,0.3-0.6,0.4
		c-0.2,0.1-0.4,0.2-0.6,0.3C91.7,96,91.5,96,91.3,96z M91.6,95.1c0.2,0,0.5,0,0.7-0.1c0.2-0.1,0.4-0.2,0.6-0.3
		c0.2-0.1,0.3-0.3,0.5-0.5c0.1-0.2,0.2-0.4,0.3-0.5v-1.9c-0.1-0.2-0.2-0.4-0.4-0.6c-0.1-0.2-0.3-0.3-0.5-0.5s-0.4-0.2-0.6-0.3
		c-0.2-0.1-0.4-0.1-0.7-0.1c-0.3,0-0.6,0.1-0.9,0.2c-0.3,0.1-0.5,0.3-0.7,0.6c-0.2,0.2-0.3,0.5-0.4,0.8c-0.1,0.3-0.2,0.6-0.2,0.9
		c0,0.3,0.1,0.6,0.2,0.9c0.1,0.3,0.3,0.6,0.5,0.8c0.2,0.2,0.4,0.4,0.7,0.5C91,95,91.3,95.1,91.6,95.1z"/>
	<path d="M99.1,96c-0.5,0-1-0.1-1.4-0.3c-0.4-0.2-0.8-0.4-1.1-0.7c-0.3-0.3-0.5-0.7-0.7-1.1s-0.2-0.9-0.2-1.3c0-0.5,0.1-0.9,0.2-1.3
		s0.4-0.8,0.7-1.1c0.3-0.3,0.6-0.6,1.1-0.7c0.4-0.2,0.9-0.3,1.4-0.3c0.5,0,0.9,0.1,1.4,0.3c0.4,0.2,0.8,0.4,1.1,0.7
		c0.3,0.3,0.5,0.7,0.7,1.1c0.2,0.4,0.2,0.9,0.2,1.3c0,0.5-0.1,0.9-0.2,1.3s-0.4,0.8-0.7,1.1c-0.3,0.3-0.6,0.6-1.1,0.7
		C100.1,95.9,99.6,96,99.1,96z M97,92.6c0,0.3,0.1,0.7,0.2,1s0.3,0.6,0.5,0.8c0.2,0.2,0.4,0.4,0.7,0.5s0.6,0.2,0.9,0.2
		c0.3,0,0.6-0.1,0.9-0.2c0.3-0.1,0.5-0.3,0.7-0.5c0.2-0.2,0.4-0.5,0.5-0.8c0.1-0.3,0.2-0.6,0.2-1c0-0.3-0.1-0.7-0.2-1
		c-0.1-0.3-0.3-0.6-0.5-0.8c-0.2-0.2-0.4-0.4-0.7-0.5c-0.3-0.1-0.6-0.2-0.9-0.2c-0.3,0-0.6,0.1-0.9,0.2c-0.3,0.1-0.5,0.3-0.7,0.5
		c-0.2,0.2-0.4,0.5-0.5,0.8C97,92,97,92.3,97,92.6z"/>
	<path d="M107.1,90.3c-0.6,0-1.1,0.2-1.5,0.4c-0.4,0.3-0.7,0.6-0.9,1.1v4.1h-1.1v-6.6h1v1.5c0.2-0.5,0.5-0.8,0.9-1.1
		s0.8-0.5,1.2-0.5c0.1,0,0.2,0,0.2,0c0.1,0,0.1,0,0.2,0V90.3z"/>
	<path d="M108.4,97.7c0.2,0,0.4,0,0.6,0c0.1,0,0.1,0,0.2-0.1c0.1,0,0.1-0.1,0.2-0.2s0.2-0.3,0.3-0.6c0.1-0.2,0.2-0.6,0.4-1l-2.8-6.6
		h1.2l2.3,5.6l2.1-5.6h1.1l-3.2,8.4c-0.2,0.4-0.4,0.7-0.7,0.9c-0.3,0.2-0.6,0.3-1,0.3c-0.1,0-0.2,0-0.3,0c-0.1,0-0.2,0-0.3-0.1V97.7
		z"/>
	<path d="M113.3,96.1c0.1,0,0.1,0,0.2-0.1c0.1,0,0.1-0.1,0.1-0.2v-1.3h0.9V96c0,0.2,0,0.3-0.1,0.5c-0.1,0.1-0.2,0.2-0.3,0.3
		c-0.1,0.1-0.3,0.1-0.4,0.2s-0.3,0.1-0.4,0.1V96.1z"/>
	<path d="M119.4,95.9v-7.5h2.6c0.6,0,1.1,0.1,1.6,0.3s0.8,0.5,1.1,0.8c0.3,0.3,0.5,0.7,0.7,1.2c0.2,0.5,0.2,0.9,0.2,1.5
		c0,0.6-0.1,1.1-0.3,1.5c-0.2,0.5-0.4,0.9-0.7,1.2c-0.3,0.3-0.7,0.6-1.1,0.8c-0.4,0.2-0.9,0.3-1.5,0.3H119.4z M124.7,92.2
		c0-0.4-0.1-0.8-0.2-1.2c-0.1-0.4-0.3-0.7-0.5-0.9s-0.5-0.5-0.8-0.6s-0.7-0.2-1.1-0.2h-1.6v5.8h1.6c0.4,0,0.8-0.1,1.1-0.2
		c0.3-0.1,0.6-0.4,0.8-0.6c0.2-0.3,0.4-0.6,0.5-0.9C124.6,93,124.7,92.6,124.7,92.2z"/>
	<path d="M133.5,95.9v-5.8l-2.5,4.5h-0.5l-2.5-4.5v5.8h-1v-7.5h1l2.7,4.9l2.7-4.9h1v7.5H133.5z"/>
	<path d="M136.3,95.9v-7.5h2.6c0.6,0,1.1,0.1,1.6,0.3c0.5,0.2,0.8,0.5,1.1,0.8c0.3,0.3,0.5,0.7,0.7,1.2c0.2,0.5,0.2,0.9,0.2,1.5
		c0,0.6-0.1,1.1-0.3,1.5c-0.2,0.5-0.4,0.9-0.7,1.2c-0.3,0.3-0.7,0.6-1.1,0.8c-0.4,0.2-0.9,0.3-1.5,0.3H136.3z M141.5,92.2
		c0-0.4-0.1-0.8-0.2-1.2c-0.1-0.4-0.3-0.7-0.5-0.9c-0.2-0.3-0.5-0.5-0.8-0.6s-0.7-0.2-1.1-0.2h-1.6v5.8h1.6c0.4,0,0.8-0.1,1.1-0.2
		c0.3-0.1,0.6-0.4,0.8-0.6c0.2-0.3,0.4-0.6,0.5-0.9C141.5,93,141.5,92.6,141.5,92.2z"/>
</g>
</svg>
